<svg xmlns="http://www.w3.org/2000/svg" viewBox="0 0 98.69 53.95"><defs><style>.cls-1{fill:#4d5dca;}.cls-2{fill:#fbc02d;}.cls-3{fill:#f9a01b;}.cls-4{fill:#f77219;}.cls-5{fill:#fff;}.cls-6{opacity:0.1;}.cls-7{opacity:0.3;}.cls-8{fill:#f5a338;}</style></defs><g id="图层_2" data-name="图层 2"><g id="图层_1-2" data-name="图层 1"><g id="组_2910" data-name="组 2910"><g id="组_643" data-name="组 643"><path id="路径_2162" data-name="路径 2162" class="cls-1" d="M4.4,15.65c-.34,2.18-.64,4-.9,5.32a22.15,22.15,0,0,1-.78,3.19,3.45,3.45,0,0,1-.88,1.54,1.89,1.89,0,0,1-1.25.4H.14l.45-2.88H.9c.06,0,.13-.06.21-.19a4.14,4.14,0,0,0,.28-1c.12-.5.26-1.26.44-2.28s.4-2.39.67-4.13ZM3.56,7.78h3.9a1.09,1.09,0,0,0,.86-.27,1.56,1.56,0,0,0,.33-.82h3a6.05,6.05,0,0,1-1,2.75,3.09,3.09,0,0,1-2.14,1.15l-.29,1.85h2.9l-.44,2.78H7.73L5.8,27.39H3L4.93,15.22H2l.44-2.78h2.9l.28-1.8H3.11ZM15.23,6.57l-.1.62H20.9a2,2,0,0,1,1.41.61,1.74,1.74,0,0,1,.36,1.55l-2.37,15h1.5l-.45,2.83H8l.18-1.09a1.18,1.18,0,0,1-.9-.59A3.7,3.7,0,0,1,7,23.82a27.34,27.34,0,0,1,.27-3.13q.27-2,.75-5h1.9c-.27,1.74-.48,3.12-.63,4.13S9,21.56,9,22.07a5.11,5.11,0,0,0,0,1c0,.13.08.2.16.2h.31l-.18,1.09h.26L12.3,6.57ZM12.42,24.32h4.94l.48-3H12.89Zm.92-5.82h4.94l.46-2.87H13.79Zm1.35-8.56-.46,3h4.94l.46-3Z"/><path id="路径_2163" data-name="路径 2163" class="cls-1" d="M32,7.64l-.09.57H36.8L36.38,7l3-1.11c.16.39.31.79.45,1.19s.28.78.41,1.16h4.4c2,0,2.84.82,2.58,2.47l-.7,4.42H43.43l.08-.5H39.59l.61,1.69h6.92l-.4,2.49H35.84l-.05.31c0,.15,0,.29-.07.43a2.59,2.59,0,0,1-.09.4h7.84a1.62,1.62,0,0,1,1.35.64,2.24,2.24,0,0,1,.24,1.64l-.27,1.69a8.24,8.24,0,0,1-.32,1.39,3.32,3.32,0,0,1-.62,1.06,5.15,5.15,0,0,1-1.12.9,16.93,16.93,0,0,1-1.8.92L39.7,25.88a4.85,4.85,0,0,0,1.61-1,2.38,2.38,0,0,0,.61-1.31l.17-1H35a10.94,10.94,0,0,1-1.06,2.37,6.54,6.54,0,0,1-1.32,1.55,4.7,4.7,0,0,1-1.52.87,5.49,5.49,0,0,1-1.7.27h-.95l.47-3h.73a2.2,2.2,0,0,0,1.81-1.14,9.87,9.87,0,0,0,1.22-3.85l.13-.85H30.51l.4-2.5H37c-.06-.22-.12-.43-.2-.64s-.14-.42-.22-.64l1.28-.4h-7L30,20.42a21.88,21.88,0,0,1-.69,3.09,7.35,7.35,0,0,1-1.06,2.18A4,4,0,0,1,26.66,27a5.53,5.53,0,0,1-2.27.43h-.64l.46-2.92h.69a1.43,1.43,0,0,0,1.29-1,12.35,12.35,0,0,0,.76-3L29,7.64Zm-.5,3.19L31.34,12h12.6l.18-1.14Z"/></g><g id="组_644" data-name="组 644"><path id="路径_2164" data-name="路径 2164" class="cls-2" d="M50.76,26.33a8.52,8.52,0,0,1-.88.92c-.34.31-.71.61-1.09.9l-.62-.75a9.78,9.78,0,0,0,.95-.75,10,10,0,0,0,.91-.93Zm2.1-.75H49.77v.21h-.9V22h.9v.18h3.16a.92.92,0,0,1,.63.2.9.9,0,0,1,.2.63v2.82h-.9ZM49.77,23v1.79h3.09V23Zm4,5.15-.43-.42-.5-.47-.51-.45-.46-.39.65-.67.47.39.52.43L54,27l.44.38Z"/><path id="路径_2165" data-name="路径 2165" class="cls-2" d="M55.66,22h.79v6h-.78V25a1.11,1.11,0,0,1-.36,0h-.2v-.78h.15a.33.33,0,0,0,.28-.16,1.06,1.06,0,0,0,.12-.55Zm4.44.09c0,.13-.07.26-.1.4l-.12.4h1.4v.78h-.21V24.8c0,.45,0,.9-.06,1.34a3.2,3.2,0,0,1-.26,1h.52v.76h-.5a1.69,1.69,0,0,1-.67-.12,2.06,2.06,0,0,1-.7.12h-.5v-.76h.56a2.77,2.77,0,0,1-.28-1,10,10,0,0,1-.08-1.34v-.15a2.91,2.91,0,0,1-.2.35l-.5-.65.15-.28.15-.29h-.56v.89h.07a.58.58,0,0,1,.48.17.74.74,0,0,1,.13.5v2.37h-.71v-.18h-.7v.18h-.72v-3h.68v-.89h-.76V23h.76V22h.77v1h.65v.58a9,9,0,0,0,.33-.86,7.06,7.06,0,0,0,.21-.79Zm-2.68,3.39v1.29h.69V25.44Zm2.9-1.81h-.45v1.1c0,.45,0,.84,0,1.16a.4.4,0,0,0-.19.54.42.42,0,0,0,.55.19.4.4,0,0,0,.19-.54.39.39,0,0,0-.19-.19c0-.39,0-.78,0-1.16Z"/><path id="路径_2166" data-name="路径 2166" class="cls-2" d="M62.83,24.57c0,.63,0,1.14,0,1.53a7.3,7.3,0,0,1-.08.93.9.9,0,0,1-.18.44.49.49,0,0,1-.34.12h-.13v-.83h.09s0,0,0-.06a2.7,2.7,0,0,0,0-.28c0-.15,0-.37,0-.66v-1.2Zm-.6-2.28h1.12a.26.26,0,0,0,.23-.08.46.46,0,0,0,.06-.23h.84a1.56,1.56,0,0,1-.16.79.71.71,0,0,1-.56.33v.54h.83v.8h-.83V28H63V24.44h-.83v-.8H63v-.52h-.73Zm3.28-.35v.18h1.65a.69.69,0,0,1,.43.18.57.57,0,0,1,.17.45v4.32h.43v.82H64.36v-.32a.4.4,0,0,1-.28-.16,1.34,1.34,0,0,1-.15-.48,7,7,0,0,1-.06-.91c0-.38,0-.86,0-1.45h.55v1.2c0,.29,0,.51,0,.65a2.36,2.36,0,0,0,0,.28s0,.06.05.06h.09v.32h.07V22Zm0,1v.85h1.41v-.85Zm0,2.47h1.41v-.83H65.51Zm0,1.68h1.41V26.2H65.51Z"/><path id="路径_2167" data-name="路径 2167" class="cls-2" d="M70.35,22.25v.17h1.4l-.18-.36.81-.32.18.34c.06.12.11.23.17.34H74c.57,0,.85.24.85.71v1.28H74v-.14H72.83l.25.48h2v.72H72v.22a.37.37,0,0,1,0,.11h2.24a.53.53,0,0,1,.41.19.7.7,0,0,1,.15.47V27a2.6,2.6,0,0,1,0,.4.85.85,0,0,1-.13.31,1.16,1.16,0,0,1-.28.26,4.39,4.39,0,0,1-.47.27l-.46-.66a1.25,1.25,0,0,0,.42-.3.58.58,0,0,0,.11-.38v-.3h-2a2.41,2.41,0,0,1-.2.68,1.37,1.37,0,0,1-.3.45,1,1,0,0,1-.4.25,1.26,1.26,0,0,1-.47.08h-.27v-.86h.21a.51.51,0,0,0,.46-.33,2.62,2.62,0,0,0,.18-1.11v-.25h-.66v-.72h1.75a1.42,1.42,0,0,0-.08-.18L72,24.37l.34-.12h-2v1.69a6.77,6.77,0,0,1-.06.89,1.78,1.78,0,0,1-.2.63,1,1,0,0,1-.39.38,1.39,1.39,0,0,1-.63.12h-.18v-.84h.2c.15,0,.26-.1.32-.29a3.53,3.53,0,0,0,.08-.86V22.24Zm0,.92v.33H74v-.33Z"/><path id="路径_2168" data-name="路径 2168" class="cls-2" d="M76.59,22h.84v6h-.82V25a.65.65,0,0,1-.19,0h-.53v-.8h.23a.42.42,0,0,0,.32-.16.75.75,0,0,0,.15-.54Zm1.49,3.89h.83v.43c0,.2,0,.4,0,.59a1.58,1.58,0,0,1-.12.52.84.84,0,0,1-.3.37,1,1,0,0,1-.56.14H77.6v-.76h.25a.21.21,0,0,0,.11,0A.33.33,0,0,0,78,27a1.17,1.17,0,0,0,0-.26c0-.11,0-.25,0-.43Zm1.26-.13H77.72V25h1.62v-.44h-.5v.15H78V22h.86v.17H81a.6.6,0,0,1,.49.17.8.8,0,0,1,.14.45v1.92H80.8v-.15h-.6V25h1.73v.78H80.2V28h-.86Zm-.5-2.8v.8h2V23Zm2.59,3.37c0,.17,0,.31,0,.42a1.09,1.09,0,0,0,0,.26.24.24,0,0,0,.07.13.15.15,0,0,0,.11,0h.25v.76H81.6A1,1,0,0,1,81,27.8a.84.84,0,0,1-.3-.37,1.58,1.58,0,0,1-.12-.52c0-.19,0-.39,0-.58v-.44h.83Z"/><path id="路径_2169" data-name="路径 2169" class="cls-2" d="M84.09,25.17l-.31-.24-.37-.27-.36-.26-.3-.21.5-.71.3.2.36.25.36.26.32.22Zm.49.56a2.27,2.27,0,0,1-.07.22c-.05.12-.1.26-.15.41l-.18.5-.18.5-.15.41a1.73,1.73,0,0,0-.08.21l-.84-.3a2.25,2.25,0,0,1,.1-.23c0-.12.1-.26.16-.42l.19-.49c.06-.18.12-.34.18-.5l.14-.4.07-.21Zm-.28-2.12L84,23.39l-.35-.26-.35-.27L83,22.65l.48-.7.27.19.35.25.35.26.3.22ZM85,25v-.83h1.4v-.6H84.78V22.7h1.59V22h.88v.74h1.59v.82H87.25v.6h1.4V25Zm2.79,2.78h-2V28H85V25.14h.85v.18h2.06a.68.68,0,0,1,.77.57.61.61,0,0,1,0,.19V28h-.88Zm-2-1.62V27h2v-.84Z"/></g><g id="组_645" data-name="组 645"><path id="路径_2170" data-name="路径 2170" class="cls-2" d="M58.6,31.89h1v6.87h-1V35.4a.83.83,0,0,1-.21.06h-.67v-.93h.32a.45.45,0,0,0,.36-.19.87.87,0,0,0,.16-.63Zm3.66.91a3.79,3.79,0,0,1-.39.78,2.2,2.2,0,0,1-.49.52,1.65,1.65,0,0,1-.6.28,2.82,2.82,0,0,1-.71.09h-.24v-1H60a.94.94,0,0,0,.73-.31,1.76,1.76,0,0,0,.32-.4,6.48,6.48,0,0,0,.33-.57.79.79,0,0,1,.28-.32,1.1,1.1,0,0,1,.47-.1h.52a1.16,1.16,0,0,1,.49.1.67.67,0,0,1,.3.32c.12.23.22.43.31.59a2.27,2.27,0,0,0,.29.4.74.74,0,0,0,.32.22,1.31,1.31,0,0,0,.44.07H65v1h-.2a2.24,2.24,0,0,1-1.33-.4,2.12,2.12,0,0,1-.77-1.27Zm-.52,1.78v1.54a7.44,7.44,0,0,1-.1,1.25,2.79,2.79,0,0,1-.29.84,1.2,1.2,0,0,1-.49.46,1.69,1.69,0,0,1-.7.15h-.33v-1h.26a.59.59,0,0,0,.31-.09.56.56,0,0,0,.21-.29,2.36,2.36,0,0,0,.12-.54,7.58,7.58,0,0,0,0-.83V34.58Zm1.32,0h1v4.17h-1Z"/><path id="路径_2171" data-name="路径 2171" class="cls-2" d="M66.71,34.34v1.43c0,.33,0,.63,0,.88a2.8,2.8,0,0,1-.13.64.91.91,0,0,1-.24.38.6.6,0,0,1-.39.12h-.14v-1h.09a.06.06,0,0,0,.06,0,.41.41,0,0,0,0-.16,2.63,2.63,0,0,0,0-.33c0-.15,0-.34,0-.58V34.34Zm.14-.43h-.94V33h.94V31.74h.85V33h.6v.69A10,10,0,0,0,69,32.6a9.78,9.78,0,0,0,.52-1l.89.33-.08.17-.08.18h1.44a1.1,1.1,0,0,1,.66.16.58.58,0,0,1,.2.49v.2a3,3,0,0,1-.14.93,2,2,0,0,1-.47.76l.22,0H73v.9h-.63a6.11,6.11,0,0,1-.86-.06,4.7,4.7,0,0,1-.74-.18,7.43,7.43,0,0,1-2,.24h-.45v-.59l-.37.37-.24-.33V38.7h-.85Zm1.24,0v0h-.4v.3l.15-.14.31.36c.11.14.21.26.3.39h.23c.3,0,.6,0,.9,0l-.25-.33a1.9,1.9,0,0,1-.2-.37l-.18.21-.19.21Zm3.65,4.66H69.67v.15h-.89v-3h.89v.15H71.9c.49,0,.73.23.73.69v2.13h-.89Zm-2.07-1.82v1h2.07v-1Zm.18-3.63a1.62,1.62,0,0,0,.87,1.32,1.39,1.39,0,0,0,.82-1.32Z"/><path id="路径_2172" data-name="路径 2172" class="cls-2" d="M75.58,33.07v.18H77v-.38H74.1V32h6.7v.91H78v.38h1.83a.59.59,0,0,1,.47.19.83.83,0,0,1,.14.55v2.43H79.35v-.17H77.94a3.93,3.93,0,0,1-.12.67,3,3,0,0,1-.24.55,8.91,8.91,0,0,0,1.45.22q.78,0,1.8.06v1c-.41,0-.8,0-1.16,0s-.71-.05-1-.09-.63-.09-.93-.15a8.47,8.47,0,0,1-.86-.25,2.88,2.88,0,0,1-.83.35,3.56,3.56,0,0,1-.92.11H74v-1h1.09a1.86,1.86,0,0,0,.52-.07,7.57,7.57,0,0,1-1.13-.82l.41-.45h-.4V33.07Zm-.12,3.35a5.26,5.26,0,0,0,1.08.67,1.36,1.36,0,0,0,.24-.38,1.45,1.45,0,0,0,.14-.46H75.58v.17Zm.12-2.1H77V34H75.58Zm0,1.13H77v-.32H75.58ZM78,34.05v.28h1.39v-.28Zm0,1.4h1.39v-.32H78Z"/><path id="路径_2173" data-name="路径 2173" class="cls-2" d="M82.69,31.85h1v6.86h-1V35.36a.5.5,0,0,1-.21,0l-.22,0h-.36V34.5h.23a.45.45,0,0,0,.36-.19.94.94,0,0,0,.17-.63ZM85,34.36H84v-1H85V31.78H86v1.58h1.55l-.49-.52-.46-.48.66-.64.26.25.29.28.3.29.28.28-.56.54h1v1H87.4v3.08a.3.3,0,0,0,.06.22.27.27,0,0,0,.15.05h1.28v.94H87.24a.83.83,0,0,1-.6-.22,1.1,1.1,0,0,1-.2-.72V34.36H86v.52a15.66,15.66,0,0,1-.11,1.94A3.52,3.52,0,0,1,85.57,38a1.13,1.13,0,0,1-.54.56,2.18,2.18,0,0,1-.76.14h-.39v-.9h.27a.66.66,0,0,0,.43-.15,1,1,0,0,0,.27-.48,4.48,4.48,0,0,0,.15-.89c0-.37,0-.82,0-1.37Z"/></g><g id="组_646" data-name="组 646"><g id="组_275" data-name="组 275"><g id="路径_1154" data-name="路径 1154"><path id="路径_2174" data-name="路径 2174" class="cls-3" d="M9,48.16H.62l.27-9.22H11.61Z"/></g><g id="矩形_598" data-name="矩形 598"><path id="路径_2175" data-name="路径 2175" class="cls-3" d="M.19,37.74h12.5l-.19,1.2H0Z"/></g></g><g id="路径_1155" data-name="路径 1155"><path id="路径_2176" data-name="路径 2176" class="cls-4" d="M.89,38.93l0,1.2H11.27l.34-1.2Z"/></g><g id="路径_1156" data-name="路径 1156"><path id="路径_2177" data-name="路径 2177" class="cls-3" d="M5.85,37.74H1.68l.42-2.68,1.43-1.48H5.32l.95,1.48Z"/></g><g id="矩形_599" data-name="矩形 599"><path id="路径_2178" data-name="路径 2178" class="cls-4" d="M3.86,31.49H5.64l-.33,2.09H3.53Z"/></g><g id="矩形_600" data-name="矩形 600"><path id="路径_2179" data-name="路径 2179" class="cls-2" d="M2.1,35.06H6.27l-.43,2.68H1.68Z"/></g><g id="矩形_601" data-name="矩形 601"><path id="路径_2180" data-name="路径 2180" class="cls-3" d="M10.81,32.76l.57-.26.84,2.43-.58.27Z"/></g><g id="组_276" data-name="组 276"><g id="矩形_602" data-name="矩形 602"><path id="路径_2181" data-name="路径 2181" class="cls-3" d="M12.19,31.49h1.2l-.19,1.19H12Z"/></g><g id="路径_1157" data-name="路径 1157"><path id="路径_2182" data-name="路径 2182" class="cls-3" d="M10.33,33.87H7.65a2.9,2.9,0,0,1,2.76-2.38H12.2L12,32.68Z"/></g></g><g id="矩形_603" data-name="矩形 603"><path id="路径_2183" data-name="路径 2183" class="cls-5" d="M8.54,33.87h1.79l-.19,1.2H8.35Z"/></g><g id="路径_1158" data-name="路径 1158"><path id="路径_2184" data-name="路径 2184" class="cls-2" d="M8.36,35.07h1.78l1.25,1.48-.19,1.2H7L7.31,36Z"/></g><g id="路径_1161" data-name="路径 1161"><path id="路径_2185" data-name="路径 2185" class="cls-2" d="M7.55,40.13l.38-2.39H3.17L2.08,44.59a.75.75,0,0,0,.58.88.47.47,0,0,0,.17,0h3a1.07,1.07,0,0,0,1-.89h0l.47-3,1.11.6a.73.73,0,0,0,.92-.28h0v0a.61.61,0,0,0-.1-.85L9.2,41h0Z"/></g><g id="路径_1162" data-name="路径 1162" class="cls-6"><path id="路径_2186" data-name="路径 2186" class="cls-5" d="M9.2,41l-1.65-.89.38-2.38H7.7a17.58,17.58,0,0,1-5.63,7,.74.74,0,0,0,.71.76h3a1.09,1.09,0,0,0,1-.89h0l.47-3,1.11.6a.73.73,0,0,0,.92-.28h0v0a.61.61,0,0,0-.1-.85L9.2,41Z"/></g><g id="组_278" data-name="组 278" class="cls-7"><g id="矩形_608" data-name="矩形 608"><path id="路径_2187" data-name="路径 2187" class="cls-5" d="M3.3,42.51h.6l-.47,3h-.6Z"/></g><g id="矩形_609" data-name="矩形 609"><path id="路径_2188" data-name="路径 2188" class="cls-5" d="M4.5,42.51h.6l-.48,3H4Z"/></g><g id="矩形_610" data-name="矩形 610"><path id="路径_2189" data-name="路径 2189" class="cls-5" d="M5.69,42.51h.59l-.47,3h-.6Z"/></g></g></g><g id="组_647" data-name="组 647"><path id="路径_2190" data-name="路径 2190" class="cls-1" d="M13.57,30.66h2.55L13.26,48.73H10.75l1.4-8.84a2.86,2.86,0,0,1-.58.13,5.49,5.49,0,0,1-.58,0H10l.38-2.41H11a1.62,1.62,0,0,0,1.05-.49,2.78,2.78,0,0,0,.72-1.66Zm2.65,11.81h2.51l-.2,1.31c-.1.6-.21,1.19-.35,1.77a5.28,5.28,0,0,1-.61,1.57,3.19,3.19,0,0,1-1.09,1.13,3.31,3.31,0,0,1-1.77.42h-1l.37-2.31h.78a.55.55,0,0,0,.33-.11,1,1,0,0,0,.28-.4,4.7,4.7,0,0,0,.25-.78c.08-.34.16-.77.25-1.3Zm3.89-.4H15.18l.37-2.38h4.94l.21-1.33H19.16l-.08.46H16.49l1.3-8.2h2.59l-.08.5h6.63a1.51,1.51,0,0,1,1.38.52,1.88,1.88,0,0,1,.2,1.37l-.92,5.81H25l.07-.46H23.29l-.21,1.34h5.26L28,42.07H22.7L21.64,48.8H19Zm-.2-8.5L19.53,36h5.94l.39-2.41Zm6.24,10.2c-.08.52-.14.95-.16,1.29a3.39,3.39,0,0,0,0,.78.74.74,0,0,0,.16.4.38.38,0,0,0,.3.11h.77l-.37,2.32h-.95a2.65,2.65,0,0,1-1.64-.43,2.05,2.05,0,0,1-.73-1.13,4.6,4.6,0,0,1-.12-1.57c.06-.58.13-1.17.22-1.77l.21-1.31h2.51Z"/><path id="路径_2191" data-name="路径 2191" class="cls-1" d="M36,42c0,.1-.16.32-.34.67s-.4.75-.65,1.23l-.79,1.52c-.27.54-.54,1-.78,1.52l-.65,1.23c-.18.34-.3.55-.34.64L30,47.92c.08-.11.22-.35.43-.71L31.16,46l.8-1.5.79-1.5c.25-.47.46-.88.63-1.22s.27-.56.32-.65ZM34.79,40.3l-.85-.73-1-.82L32,38l-.79-.64,1.86-2.14.82.61,1,.76q.49.41,1,.78l.85.68Zm1.36-4.73-.75-.66-.93-.81-.94-.8-.76-.64,1.78-2.12.74.58.93.75.94.79.79.67Zm8.51,12.5h-5.9l-.13.85H36.06l1.38-8.7H40l-.09.55h6.25c1.55,0,2.21.76,2,2.29l-.93,5.87H44.53Zm-7.11-8.46.4-2.5h4.24l.29-1.83H37.67l.39-2.5h4.82l.35-2.23H45.9l-.35,2.23h4.81l-.4,2.5H45.15l-.29,1.83H49.1l-.4,2.5Zm2,3.55-.4,2.54H45l.4-2.54Z"/></g><g id="组_648" data-name="组 648"><path id="路径_2192-2" data-name="路径 2192-2" class="cls-2" d="M68.49,54a29.78,29.78,0,0,1-16.88-5.14l.82-1.2A28.39,28.39,0,0,0,68.49,52.5c15,0,27.28-11.45,27.28-25.52h1.45C97.22,41.85,84.34,54,68.49,54Z"/></g><g id="组_649" data-name="组 649"><path id="路径_2193-2" data-name="路径 2193-2" class="cls-2" d="M94.31,19a4.38,4.38,0,1,1,4.38-4.38A4.38,4.38,0,0,1,94.31,19Zm0-7.29a2.92,2.92,0,1,0,2.92,2.91A2.91,2.91,0,0,0,94.31,11.67Z"/></g><g id="组_650" data-name="组 650"><path id="路径_2194-2" data-name="路径 2194-2" class="cls-2" d="M87.38,5.1a2.55,2.55,0,1,1,2.55-2.55A2.55,2.55,0,0,1,87.38,5.1Zm0-3.64a1.1,1.1,0,1,0,1.09,1.09h0a1.09,1.09,0,0,0-1.09-1.09Z"/></g><g id="路径_1159" data-name="路径 1159"><path id="路径_2195" data-name="路径 2195" class="cls-3" d="M45.27,41.83h-.6a2.55,2.55,0,0,0-1.09.24,2.29,2.29,0,0,1-2.1,0,2.09,2.09,0,0,0-1-.24h-.61a2.35,2.35,0,0,0-2.24,1.93l-.36,2.32A1.61,1.61,0,0,0,38.51,48a2.31,2.31,0,0,0,.37,0h.6a2.56,2.56,0,0,0,1.09-.25,2.35,2.35,0,0,1,2.1,0,2.1,2.1,0,0,0,1,.25h.6a2.36,2.36,0,0,0,2.24-1.93l.37-2.32a1.61,1.61,0,0,0-1.25-1.9A1.14,1.14,0,0,0,45.27,41.83Z"/></g><g id="路径_1160" data-name="路径 1160"><path id="路径_2196" data-name="路径 2196" class="cls-2" d="M44.66,45.69h-.61a2.22,2.22,0,0,1-1-.25h0a2.35,2.35,0,0,0-2.1,0h0a2.72,2.72,0,0,1-1.09.25h-.6a1.61,1.61,0,0,1-1.66-1.56,1.5,1.5,0,0,1,0-.37h0a2.35,2.35,0,0,1,2.23-1.94h.61a2.22,2.22,0,0,1,1,.25h0a2.35,2.35,0,0,0,2.1,0h0a2.72,2.72,0,0,1,1.09-.25h.6a1.62,1.62,0,0,1,1.63,1.94h0A2.36,2.36,0,0,1,44.66,45.69Z"/></g><g id="组_277" data-name="组 277"><g id="矩形_604" data-name="矩形 604"><path id="路径_2197" data-name="路径 2197" class="cls-8" d="M44.7,43h.78l-.12.78h-.78Z"/></g><g id="矩形_605" data-name="矩形 605"><path id="路径_2198" data-name="路径 2198" class="cls-8" d="M40.84,43h.77l-.12.78h-.77Z"/></g><g id="矩形_606" data-name="矩形 606"><path id="路径_2199" data-name="路径 2199" class="cls-8" d="M39.23,43.37H40l-.13.77h-.77Z"/></g><g id="矩形_607" data-name="矩形 607"><path id="路径_2200" data-name="路径 2200" class="cls-8" d="M43.1,43.37h.77l-.12.77H43Z"/></g></g><g id="组_651" data-name="组 651"><rect id="矩形_657-2" data-name="矩形 657-2" class="cls-2" x="53.48" y="9.85" width="29.53" height="1.46"/></g></g></g></g></svg>