<svg xmlns="http://www.w3.org/2000/svg" viewBox="0 0 109.02 49.29"><defs><style>.cls-1{fill:#fbc02d;}.cls-2{fill:#4d5dca;}.cls-3{fill:none;}.cls-4{opacity:0.2;}.cls-5{fill:#fff;}</style></defs><g id="图层_2" data-name="图层 2"><g id="图层_1-2" data-name="图层 1"><g id="组_2911" data-name="组 2911"><g id="组_653" data-name="组 653"><path id="路径_2201" data-name="路径 2201" class="cls-1" d="M54.16,15.5l-.12.77h2.6l-.14.9H50.3l.14-.9H53l.12-.77H51.21l.14-.9h2l.12-.78H51.68l.1-.62a2.57,2.57,0,0,1-.62.08h-.37l.14-.89h.34a1.38,1.38,0,0,0,.82-.33,4.32,4.32,0,0,0,.83-.93.68.68,0,0,1,.31-.27,1.17,1.17,0,0,1,.45-.09h1.38a1.13,1.13,0,0,1,.45.09.46.46,0,0,1,.24.27,3.12,3.12,0,0,0,.53.94,1,1,0,0,0,.77.32h.36l-.14.89h-.41l-.29,0a1.4,1.4,0,0,1-.28-.06l-.1.63H54.44l-.12.77h2l-.14.9Zm-.54-3.85a3.28,3.28,0,0,1-.53.75,2.66,2.66,0,0,1-.64.52h3.2a2,2,0,0,1-.51-.53,1.75,1.75,0,0,1-.24-.74Z"/><path id="路径_2202" data-name="路径 2202" class="cls-1" d="M63,12.2h.77l-.11.68a14.18,14.18,0,0,1-.33,1.6,4.35,4.35,0,0,1-.46,1.09h.43l-.1.66a.53.53,0,0,0,.13-.26L64,11.82h-4.3L58.8,17.2h-.92l1-6.46h.92l0,.19h4.35c.57,0,.81.29.72.85l-.68,4.32a1.36,1.36,0,0,1-.39.77,2.48,2.48,0,0,1-.87.55l-.41-.79c.1-.05.21-.09.31-.15a1,1,0,0,0,.25-.16h-.53a1,1,0,0,1-.44-.08,1.5,1.5,0,0,1-.47.08h-.49l.12-.76h.4a3.7,3.7,0,0,1-.08-1.05,14.77,14.77,0,0,1,.18-1.63l.11-.68h.77l-.11.68c-.08.48-.13.89-.16,1.22a4.5,4.5,0,0,0,0,.82,6.18,6.18,0,0,0,.27-.83c.08-.34.15-.74.23-1.21Zm-2.1,0h.77l-.11.69a14.65,14.65,0,0,1-.33,1.6,4.26,4.26,0,0,1-.45,1.08h.42l-.12.76h-.6a1,1,0,0,1-.44-.08,1.5,1.5,0,0,1-.47.08H59l.12-.76h.4a4.13,4.13,0,0,1-.07-1.05,14.77,14.77,0,0,1,.18-1.63l.11-.69h.76l-.11.69c-.07.48-.13.89-.16,1.22a5.48,5.48,0,0,0,0,.81,4,4,0,0,0,.27-.83c.08-.33.16-.73.23-1.2Z"/><path id="路径_2203" data-name="路径 2203" class="cls-1" d="M68.81,13.49h.48l-.08.52h-.48l-.1.68h-.8l0,.15h.48a.74.74,0,0,1,.5.12.48.48,0,0,1,.09.45l-.11.67H68V16h-.41l0,.17h1.25l0,.32a.12.12,0,0,0,.1-.07.7.7,0,0,0,.08-.2,3.56,3.56,0,0,0,.07-.35c0-.14.06-.31.09-.52l.32-2h.8l0,.15h1.07a1,1,0,0,1,.39,0,.36.36,0,0,1,.21.15A.5.5,0,0,1,72,14a2.19,2.19,0,0,1,0,.36l-.29,1.86a2.75,2.75,0,0,1-.11.41,1.09,1.09,0,0,1-.19.33,1.48,1.48,0,0,1-.3.26,2.58,2.58,0,0,1-.44.22l-.33-.7a1.62,1.62,0,0,0,.26-.12.66.66,0,0,0,.17-.12.4.4,0,0,0,.1-.15,1.33,1.33,0,0,0,0-.19v-.05H69.8a2.73,2.73,0,0,1-.15.56,1.11,1.11,0,0,1-.22.38.71.71,0,0,1-.32.22,1.61,1.61,0,0,1-.48.08h-.16l.1-.59H67.5l-.09.56h-.8l.09-.56H65.35l.08-.53h1.36l0-.17H66.4v.07h-.75l.21-1.3h.75v.05H67l0-.15h-.83l.1-.68H65.8l.08-.51h.49l0-.16h.82l0,.16H68l0-.17h.83Zm-1.67-2v.1H69l0-.19H66.8l.1-.61h5.3l-.1.61H69.87l0,.19h1.93a.8.8,0,0,1,.57.18.62.62,0,0,1,.11.56l-.1.6h-.86l.13-.82H69.75l-.16,1h-.86l.16-1H67l-.13.81h-.86l.23-1.43Zm-.65,4h.41l0-.21h-.41Zm.6-1.33h.79l0-.18h-.8Zm0-.95.07-.41h1.39l-.07.41Zm.1-.59.06-.41h1.39l-.06.41Zm.52,2.66,0,.21h.4l0-.21Zm2.09-2.07.07-.41h1.38l-.07.41Zm.1-.59.06-.41h1.38l-.06.41Zm0,2.76h1l0-.31H70l0,.27Zm.2-1.27,0,.31h1l0-.31Z"/><path id="路径_2204" data-name="路径 2204" class="cls-1" d="M75.27,10.76l0,.18h3.94a1,1,0,0,1,.67.18.55.55,0,0,1,.14.53L79.78,13h-.92l0-.18h-.34l.41.27a1.42,1.42,0,0,1-.2.22l-.2.2h1.17l-.12.78h-1l-.1.64h1.23l-.14.85H78.35l-.24,1.49h-.89l.24-1.49h-1.2a2.92,2.92,0,0,1-.34.74,1.84,1.84,0,0,1-.43.45,1.54,1.54,0,0,1-.5.24,2.48,2.48,0,0,1-.54.06h-.26l.13-.8h.24a1.52,1.52,0,0,0,.21,0,.51.51,0,0,0,.21-.1,1,1,0,0,0,.2-.21,1.42,1.42,0,0,0,.17-.35h-.78l.13-.85h.86l.1-.64H74.9l.12-.78h1l-.18-.27a1.91,1.91,0,0,0-.15-.21l.34-.22H74.94l-.37,2.34a6.23,6.23,0,0,1-.22.95,1.88,1.88,0,0,1-.32.65,1.12,1.12,0,0,1-.48.38,1.74,1.74,0,0,1-.71.12h-.2l.14-.91H73a.45.45,0,0,0,.38-.28,3.5,3.5,0,0,0,.26-1l.69-4.33Zm-.15.9-.06.41h4l.06-.41Zm1.34,3.26h1.13l.1-.64H76.55Zm.34-1.42h.79l.32-.37.28-.33H76.63l.2.28.18.27Z"/><path id="路径_2205" data-name="路径 2205" class="cls-1" d="M82.55,13.62l-.09.55h.76l-.14.86h-.76l-.11.69q-.06.44.48.72l-.59.77a1.5,1.5,0,0,1-.66-.56,1,1,0,0,1-.1-.73l.14-.89h-.7l.13-.86h.7l.09-.55h-.54l.14-.88h2l-.14.88Zm.25-2.86-.11.69h.85l-.13.86H82.35a.94.94,0,0,1-.39.22,2.16,2.16,0,0,1-.51.06h-.24l.13-.85h.18a.27.27,0,0,0,.17-.06.26.26,0,0,0,.1-.2l.12-.72Zm.8,1.73h.7l-.17-.26c-.07-.1-.14-.19-.2-.29s-.15-.2-.21-.3l-.2-.28.69-.51.16.22.25.32.26.34.2.28-.7.48h.12l0,.16h.61l.31-2h.86l-.31,2h.64a1,1,0,0,1,.64.18.59.59,0,0,1,.15.6l-.45,2.87q-.11.69-1.05,1.08l-.37-.69a1.23,1.23,0,0,0,.4-.23.62.62,0,0,0,.14-.28l0-.29H84l-.2,1.29h-.9Zm.47,2.67H86.2l.08-.52H84.16Zm.29-1.77-.09.52H86.4l.08-.52Zm3.52-2-.29.28c-.11.1-.21.2-.31.31l-.3.31-.27.28-.58-.52.28-.28.37-.35.34-.33.23-.22Z"/><path id="路径_2206" data-name="路径 2206" class="cls-1" d="M93,17.07H89.44l0,.18h-.92L88.85,15h.92l0,.12h3.82a.63.63,0,0,1,.47.14.5.5,0,0,1,.1.44l-.25,1.58H93Zm-3.15-2.24v.05h-.9l.33-2.06-.36,0h-.24L88.8,12H89a.21.21,0,0,0,.17-.08.39.39,0,0,0,.11-.22l.14-.92h.91l-.09.58H92l-.22-.4.82-.42.11.17.15.23.15.24.12.18h1.91L95,12H92.91l0,.26h1.88l-.1.67H92.76l0,.23h1.89l-.11.68H92.61l0,.27h2.18l-.11.69Zm-.21,1-.08.54H93.1l.09-.54ZM90,14.14h1.73l0-.27H90Zm.15-1h1.73l0-.23H90.14Zm.14-.9H92L92,12H90.29Z"/></g><g id="_581045067_shock_color" data-name=" 581045067 shock color"><path id="路径_2207-2" data-name="路径 2207-2" class="cls-1" d="M61.26,48.59V35.87H52.12V34.34H62.69v12l38.74-16.21H93.17l9.19-28.6H46.63V6.2H45.2V0h59.16L95.17,28.6H109Z"/></g><g id="组_654" data-name="组 654"><path id="路径_2208" data-name="路径 2208" class="cls-2" d="M2.73,10.47h3.2L3.19,27.74H0ZM7,11.57l-.69-.91c-.27-.35-.55-.72-.86-1.1l-.9-1.07c-.29-.34-.55-.63-.76-.86l2.54-2.2c.22.2.48.46.78.77l.93,1c.32.34.63.68.92,1l.78.91Zm9.77,12.2a6.58,6.58,0,0,1-4.63-3.22A5.76,5.76,0,0,1,9.65,23a8.3,8.3,0,0,1-3.58.71H4.4l.49-3.09H6.34a4.88,4.88,0,0,0,1.52-.24,2.64,2.64,0,0,0,1.2-.91A6.3,6.3,0,0,0,10,17.64a19.83,19.83,0,0,0,.71-3.12l.51-3.2h3.24l-.51,3.2c0,.26-.08.52-.13.76l-.15.71a5.38,5.38,0,0,0,1.68,3.09,7.38,7.38,0,0,0,3.13,1.55ZM10.52,7.15H20.85a2.91,2.91,0,0,1,2.32.75,2.65,2.65,0,0,1,.39,2.17L21.35,24a4.45,4.45,0,0,1-1.2,2.43,8.75,8.75,0,0,1-3,1.91l-1.47-2.72a5.91,5.91,0,0,0,1.8-1.05,2.21,2.21,0,0,0,.72-1.27l2.08-13.13H10Z"/><path id="路径_2209" data-name="路径 2209" class="cls-2" d="M46.65,27.87H37.26a7.72,7.72,0,0,1-1.79-.18A1.76,1.76,0,0,1,34,25.92a8.37,8.37,0,0,1,.12-1.87l.25-1.6H29.81l-.11.7H26.56l2.36-14.9h3.14L32,8.9h4.55l.43-2.72h3.24L39.75,8.9h5.07a2.67,2.67,0,0,1,2,.65,2.27,2.27,0,0,1,.41,2L45.4,23.15H42.18l.12-.7H37.6l-.2,1.3c-.06.38,0,.63.08.74a1.38,1.38,0,0,0,.8.16h8.89ZM30.29,19.41h4.55l.34-2.2H30.64Zm.83-5.24h4.54L36,12H31.47Zm7,5.24h4.69l.35-2.2H38.43ZM39.26,12l-.35,2.22H43.6L44,12Z"/></g><g id="组_655" data-name="组 655"><path id="路径_2210" data-name="路径 2210" class="cls-2" d="M23.48,48.83H8.9l1.26-7.92H13l-.82,5.23h4.51l1-6.32H11l1.25-7.88H15l-.81,5.17h3.93L19.2,30h2.72L20.8,37.11h3.91l.82-5.17H28.3l-1.25,7.88H20.37l-1,6.32h4.54l.83-5.27h2.81l-1.33,8.42H23.41Z"/><path id="路径_2211" data-name="路径 2211" class="cls-2" d="M33.85,38.48c-.32,2-.6,3.65-.83,4.9a21,21,0,0,1-.72,2.94,3.3,3.3,0,0,1-.8,1.42,1.81,1.81,0,0,1-1.14.37H30l.41-2.65h.29c.05,0,.12-.06.19-.18a4.76,4.76,0,0,0,.26-.89c.1-.47.23-1.17.4-2.1s.37-2.2.62-3.8Zm-.76-7.24h3.54a1,1,0,0,0,.79-.25,1.46,1.46,0,0,0,.3-.75h2.7a5.67,5.67,0,0,1-.93,2.53,2.83,2.83,0,0,1-2,1.06l-.27,1.7h2.64l-.41,2.56H36.87l-1.78,11.2H32.54l1.78-11.2H31.68l.41-2.56h2.63L35,33.87h-2.3ZM43.7,30.13l-.09.57h5.25a1.73,1.73,0,0,1,1.28.56,1.64,1.64,0,0,1,.33,1.43L48.29,46.46h1.36l-.42,2.6H37.05l.16-1a1.05,1.05,0,0,1-.81-.54A3.42,3.42,0,0,1,36.17,46a23.16,23.16,0,0,1,.25-2.88c.16-1.21.39-2.76.69-4.64h1.73c-.26,1.6-.45,2.87-.58,3.81S38,43.92,38,44.39a4.3,4.3,0,0,0,0,.88c0,.12.07.19.14.19h.28l-.16,1h.24l2.59-16.33ZM41.11,46.47h4.5l.44-2.78h-4.5ZM42,41.11h4.5l.42-2.65h-4.5Zm1.25-7.87L42.78,36h4.49l.43-2.71Z"/></g><g id="组_522" data-name="组 522"><g id="矩形_642" data-name="矩形 642"><rect id="矩形_658" data-name="矩形 658" class="cls-3" x="3.79" y="5.17" width="20.35" height="20.35"/></g><g id="_581045067_shock_color-2" data-name=" 581045067 shock color-2"><path id="路径_2212" data-name="路径 2212" class="cls-1" d="M14.82,13.93h3.39L12.27,24.1V16.48H9.73V7.15h8.48Z"/></g><g id="路径_1397" data-name="路径 1397" class="cls-4"><path id="路径_2213" data-name="路径 2213" class="cls-5" d="M14.82,13.93h3.39L12.27,24.1V16.48H9.73l4.66-9.33h3.82Z"/></g></g><g id="组_656" data-name="组 656"><path id="路径_2214" data-name="路径 2214" class="cls-1" d="M55.27,26.56l.16-1H61l-.15,1Zm6.22-1.68H57.35a1.43,1.43,0,0,1-.51-.06.42.42,0,0,1-.34-.45,1.87,1.87,0,0,1,.07-.4L57,22.15h1.15l-.44,1.73h3L61,21.83H56.56l.15-1h4.57a1,1,0,0,1,.75.24.9.9,0,0,1,.11.73l-.33,2.08H62a.65.65,0,0,1,.66.83l-.3,1.88a2.27,2.27,0,0,1-.14.51,1.45,1.45,0,0,1-.26.43,2,2,0,0,1-.45.37,4.52,4.52,0,0,1-.69.36l-.45-1a2.22,2.22,0,0,0,.63-.37.78.78,0,0,0,.23-.47Z"/><path id="路径_2215" data-name="路径 2215" class="cls-1" d="M68.41,23.8l-.48,3h3.42l-.17,1.07H63.65l.17-1.07h3l1-6.26h1.12l-.35,2.19h3l-.17,1.05Z"/><path id="路径_2216" data-name="路径 2216" class="cls-1" d="M74.21,26.36l-.52.22-.43.18a.64.64,0,0,1-.31.07.36.36,0,0,1-.24-.09.39.39,0,0,1-.15-.23.93.93,0,0,1,0-.37l.77-4.87h1l-.66,4.19.7-.28.72-4.57h1l-.44,2.84A16.6,16.6,0,0,0,76.61,22c.28-.5.54-1,.78-1.55l1,.27c-.15.33-.31.65-.48.95h2.69l-.17,1.08H80l-.27,1.69a8.33,8.33,0,0,1-.37,1.47,4.37,4.37,0,0,1-.6,1.1h1l-.17,1.1h-.79a3.66,3.66,0,0,1-1.36-.22,4.07,4.07,0,0,1-.67.16,5.16,5.16,0,0,1-.79.06h-.76l.17-1.1h1.13a3,3,0,0,1-.21-1.1,8.9,8.9,0,0,1,.12-1.46l.09-.55-.2.27-.2.25-.55-.36-.64,4h-1Zm4.71-3.6H77.81l-.25,1.6a6.1,6.1,0,0,0-.1,1.35,1.48,1.48,0,0,0,.25.84,2.28,2.28,0,0,0,.6-.84,5.84,5.84,0,0,0,.35-1.35Z"/><path id="路径_2217" data-name="路径 2217" class="cls-1" d="M82.38,23.84c-.12.79-.23,1.43-.32,1.92a9.18,9.18,0,0,1-.28,1.15,1.18,1.18,0,0,1-.32.55.69.69,0,0,1-.44.15h-.16l.16-1h.11s.05,0,.08-.07a2,2,0,0,0,.1-.35c0-.18.09-.45.15-.82s.15-.86.25-1.49ZM82.09,21h1.38a.43.43,0,0,0,.31-.1.59.59,0,0,0,.12-.31h1a2.15,2.15,0,0,1-.36,1,1.1,1.1,0,0,1-.76.42l-.11.67h1l-.16,1h-1l-.69,4.37h-1l.69-4.37h-1l.16-1h1l.1-.65h-.9Zm4.15-.44,0,.22h2a.68.68,0,0,1,.5.22.63.63,0,0,1,.13.56L88,27h.53l-.16,1H83.64l.06-.39a.4.4,0,0,1-.32-.21,1.2,1.2,0,0,1-.09-.59,8.47,8.47,0,0,1,.1-1.13l.27-1.81h.67c-.09.62-.17,1.12-.22,1.48s-.09.64-.1.83a1.29,1.29,0,0,0,0,.34c0,.05,0,.07,0,.07h.11l-.06.4h.09l1-6.39Zm-1,6.39H87l.17-1.09H85.4Zm.34-2.1h1.75l.17-1H85.72ZM86,21.79l-.17,1.06h1.76l.17-1.06Z"/></g></g></g></g></svg>