<svg xmlns="http://www.w3.org/2000/svg" xmlns:xlink="http://www.w3.org/1999/xlink" viewBox="0 0 97.03 55.83"><defs><style>.cls-1{fill:none;}.cls-2{fill:#4d5dca;}.cls-3{fill:#fbc02d;}.cls-4{fill:#f9a01b;}.cls-5{opacity:0.1;}.cls-6{fill:#fff;}.cls-7{clip-path:url(#clip-path);}.cls-8{opacity:0.3;}.cls-9{clip-path:url(#clip-path-2);}.cls-10{opacity:0.15;}</style><clipPath id="clip-path"><path class="cls-1" d="M40.27,32.08a9.93,9.93,0,0,1,.2,3l-.73.63L37.83,48.86l-1.25-.2,1.91-13.12L38,34.71A9.87,9.87,0,0,1,39,31.88,1.47,1.47,0,0,1,40.27,32.08Z"/></clipPath><clipPath id="clip-path-2"><path class="cls-1" d="M39.07,48.36c0,.28-.37,1-1.92.75s-1.66-1-1.62-1.31l.63-4.3s.53-.26.59-.7a1.19,1.19,0,0,0-.36-.86l.2-1.4,3.53.56-.2,1.4s-.53.26-.59.7a1.2,1.2,0,0,0,.36.86Z"/></clipPath></defs><g id="图层_2" data-name="图层 2"><g id="图层_1-2" data-name="图层 1"><g id="组_2907" data-name="组 2907"><g id="组_632" data-name="组 632"><path id="路径_2136" data-name="路径 2136" class="cls-2" d="M16.68,48.21l-.78.15-1.23.24-1.46.29-1.46.28-1.23.26-.76.18-.07-2.52.79-.13,1.24-.21,1.45-.28,1.47-.27L15.9,46l.85-.18Zm.08-3.84-1,.18-1.18.24c-.39.07-.77.15-1.12.23l-.86.18a2.32,2.32,0,0,1-1.38,0,1,1,0,0,1-.63-.65,1.61,1.61,0,0,1,.1-1.06,3.87,3.87,0,0,1,.85-1.23c.21-.22.5-.56.87-1s.77-1,1.21-1.55l-.63,0-.6.07a1.31,1.31,0,0,1-1-.2,1.06,1.06,0,0,1-.39-.69,2.08,2.08,0,0,1,.14-1,3.08,3.08,0,0,1,.63-1c.12-.14.32-.4.6-.77s.59-.82.93-1.33.69-1,1.05-1.62.68-1.12,1-1.66l2.16.91-.87,1.4c-.32.51-.63,1-.94,1.45s-.61.87-.89,1.23a3.62,3.62,0,0,1-.68.73l1.29-.08.72-1.06c.23-.34.45-.67.65-1l2,1A18.3,18.3,0,0,1,17.7,37.9c-.42.61-.85,1.21-1.29,1.79s-.87,1.14-1.28,1.64l-1,1.24,3-.64Zm2.66,5.79-.08.51H16.89l1.58-10a1,1,0,0,1-.25,0h-1l.4-2.57h.61a.62.62,0,0,0,.4-.18.91.91,0,0,0,.26-.56l.87-5.51h2.53l-.45,2.88H25c-.16-.34-.32-.69-.5-1.06s-.32-.67-.45-.91l2.12-1.19,1.41,2.82-.6.34H30.1l-.38,2.4H26.37l-.31,2h3l-.36,2.33h-3l-.31,2h3L28,45.77H25l-.32,2h3.62l-.37,2.35Zm.38-2.35h2.57l.32-2H20.12Zm.69-4.37h2.57l.32-2H20.8Zm.68-4.3h2.58l.31-2H21.48Z"/><path id="路径_2137" data-name="路径 2137" class="cls-2" d="M35.16,32.23h2.49l-.74,4.66,0,.26-2.14,13.5H32.31l1.44-9.1a3.55,3.55,0,0,1-1.16.17H31.9l.38-2.41h.54a1.28,1.28,0,0,0,.94-.5,3.44,3.44,0,0,0,.62-1.69ZM48,42.27c-1.19.45-2.41.83-3.64,1.16a39.8,39.8,0,0,1-4,.81l-.24-2.18c1.16-.2,2.26-.42,3.31-.66a28.85,28.85,0,0,0,3-.86L46,40.43l-.47-.13a17.79,17.79,0,0,1-4.11.45H39.9l.32-2h2a4.92,4.92,0,0,0,.67,0,3.65,3.65,0,0,1-.65-1.59l-.52.49c-.18.17-.36.34-.56.51l-1.27-1.21L38.3,47.15H36.15l2-12.31h2.15L40,36.55A32.4,32.4,0,0,0,42.33,34a20.6,20.6,0,0,0,1.73-2.43l2,.79-.3.46-.29.45h4a1.87,1.87,0,0,1,1.5.48,1.59,1.59,0,0,1,.27,1.3l-.07.44a4.9,4.9,0,0,1-2,3.25h2.24l-.32,2H49.09q-.8,0-1.47-.06Zm2.24,5.4A43,43,0,0,1,44.1,50a35.2,35.2,0,0,1-6.44,1.23L37.39,49a30,30,0,0,0,6.09-1,36.2,36.2,0,0,0,6-2.32ZM49.12,44.9c-.65.28-1.38.56-2.17.84s-1.62.55-2.47.8-1.72.47-2.59.66-1.7.34-2.51.44l-.23-2.15a33.92,33.92,0,0,0,9.31-2.58Zm-4.8-9.63a3.6,3.6,0,0,0,.33,1.59A2.67,2.67,0,0,0,46,38.11a5.42,5.42,0,0,0,1.24-.59,4.39,4.39,0,0,0,.84-.71,3.23,3.23,0,0,0,.5-.76,3.52,3.52,0,0,0,.24-.78Z"/></g><g id="组_633" data-name="组 633"><path id="路径_2138" data-name="路径 2138" class="cls-2" d="M8.41,8.71l-.09.58h5L12.85,8,15.91,6.9c.16.4.31.8.46,1.21s.28.8.42,1.18h4.47c2,0,2.89.84,2.63,2.52l-.72,4.5H20l.08-.51h-4l.62,1.72h7l-.4,2.54H12.3l-.05.31c0,.15,0,.29-.07.44a3.38,3.38,0,0,1-.09.41h8a1.66,1.66,0,0,1,1.38.65,2.26,2.26,0,0,1,.24,1.67l-.27,1.72a8.49,8.49,0,0,1-.33,1.41,3.44,3.44,0,0,1-.63,1.08,5.29,5.29,0,0,1-1.14.92,17.53,17.53,0,0,1-1.83.94l-1.25-2.32a5.25,5.25,0,0,0,1.64-1,2.56,2.56,0,0,0,.62-1.33l.16-1H11.43a11,11,0,0,1-1.08,2.4A6.59,6.59,0,0,1,9,27.87a4.73,4.73,0,0,1-1.56.88A5.3,5.3,0,0,1,5.73,29h-1l.48-3H6a2.26,2.26,0,0,0,1.84-1.17,10,10,0,0,0,1.24-3.91l.13-.87H6.88l.4-2.54h6.24a6.36,6.36,0,0,0-.2-.66c-.07-.21-.14-.43-.22-.65l1.3-.41H7.29l-.94,5.92a22.41,22.41,0,0,1-.7,3.15,7.38,7.38,0,0,1-1.08,2.22A4.08,4.08,0,0,1,3,28.42a5.56,5.56,0,0,1-2.31.44H0l.47-3h.7a1.44,1.44,0,0,0,1.31-1,12.17,12.17,0,0,0,.78-3L5.34,8.71ZM7.9,12l-.18,1.16H20.53L20.72,12Z"/><path id="路径_2139" data-name="路径 2139" class="cls-2" d="M33.22,7.58l-.1.58H46.55a2.69,2.69,0,0,1,2,.58,2,2,0,0,1,.35,1.69l-.65,4.11h-3.1l.08-.53H32.19L31,21.63a24.12,24.12,0,0,1-.7,3.14A7.91,7.91,0,0,1,29.22,27a4.14,4.14,0,0,1-1.6,1.33,5.4,5.4,0,0,1-2.31.43h-.65l.47-3h.7a1.45,1.45,0,0,0,1.31-1,12.1,12.1,0,0,0,.78-3L30.17,7.58ZM29.68,28.5l.39-2.45h6.6l.2-1.23H31.26l.37-2.39h5.62l.17-1.12-3.73.17a1.38,1.38,0,0,1-1.09-.29,1.17,1.17,0,0,1-.38-.82,1.84,1.84,0,0,1,.3-1,2.49,2.49,0,0,1,1-.86l1-.56c.34-.19.7-.42,1.08-.67H31.94l.37-2.35H47.94l-.37,2.35H44.42c.5.5,1,1,1.43,1.47l1.37,1.5L45,22.14,44,21.07l-1.54.05c-.61,0-1.29,0-2,.08l-.2,1.23h5.9l-.38,2.39h-5.9l-.2,1.24H47l-.39,2.44Zm3.07-18-.18,1.11H45.63l.18-1.11Zm6.84,6.74a15.61,15.61,0,0,1-1.49.95c-.47.26-.91.49-1.34.7l5.09-.22L41.19,18l1-.75Z"/></g><g id="组_634" data-name="组 634"><path id="路径_2140" data-name="路径 2140" class="cls-3" d="M53.85,27.9l-1-.3-1.12-.32L50.63,27l-1-.26L49.9,26l1,.23,1.19.29.59-.44.54-.42H50.6a.8.8,0,0,1-.34-.07.58.58,0,0,1-.23-.18.44.44,0,0,1-.11-.24.61.61,0,0,1,0-.27l.17-.54H48.92v-.86h1.43l.14-.46h-1.2v-.85h1.47l.21-.68,1,.1-.17.57H54.6V23H51.54l-.14.46H55v.85H51.14l-.13.45H53.9a.52.52,0,0,1,.36.11.53.53,0,0,1,.18.28.5.5,0,0,1,0,.32.44.44,0,0,1-.17.27l-.53.43q-.33.27-.66.57l1,.29Z"/><path id="路径_2141" data-name="路径 2141" class="cls-3" d="M56,27.51v-.9h1.79v-5h.94v5h.63v-5h.94v5h1.78v.9Zm0-4.93.91-.19c0,.21.08.45.14.72s.12.54.19.83l.21.84c.08.28.15.54.22.76l-.89.28c-.06-.21-.12-.45-.2-.73s-.14-.55-.21-.85-.13-.58-.2-.87-.12-.55-.17-.79Zm6.07,0-.16.8c-.07.29-.13.58-.2.87s-.14.58-.2.85-.13.52-.19.73l-.89-.27c.07-.23.14-.48.21-.76s.13-.57.2-.85.12-.56.18-.83.1-.51.13-.72Z"/><path id="路径_2142" data-name="路径 2142" class="cls-3" d="M63.7,24.2c0,.65,0,1.17,0,1.57a5.86,5.86,0,0,1-.08.94.85.85,0,0,1-.18.46.55.55,0,0,1-.35.12h-.13v-.85H63s0,0,0-.06a.92.92,0,0,0,0-.29c0-.15,0-.37,0-.67s0-.7,0-1.22Zm-.61-2.32h1.14a.31.31,0,0,0,.24-.08.5.5,0,0,0,.06-.24h.86a1.52,1.52,0,0,1-.17.81.74.74,0,0,1-.57.34v.55h.84v.81h-.84v3.59h-.82V24.08H63v-.82h.84v-.53h-.74Zm3.35-.35v.18h1.68a.67.67,0,0,1,.44.18.58.58,0,0,1,.17.45v4.42h.44v.83h-3.9v-.32A.42.42,0,0,1,65,27.1a1.4,1.4,0,0,1-.15-.49c0-.3-.06-.61-.07-.92s0-.89,0-1.49h.55c0,.52,0,.92,0,1.22s0,.52,0,.67a1,1,0,0,0,0,.29s0,.06,0,.06h.09v.32h.08V21.53Zm0,1v.87h1.43v-.87Zm0,2.52h1.43v-.85H66.44Zm0,1.72h1.43v-.89H66.44Z"/><path id="路径_2143" data-name="路径 2143" class="cls-3" d="M71.38,21.84V22H72.8l-.18-.37.82-.33.19.35c.05.12.11.23.17.35h1.28c.58,0,.86.24.86.73V24H75v-.15H73.9l.26.5h2v.74H73v.33h2.28a.57.57,0,0,1,.42.19.71.71,0,0,1,.15.48v.5a2.73,2.73,0,0,1,0,.41.77.77,0,0,1-.14.32,1,1,0,0,1-.28.26,4.62,4.62,0,0,1-.48.28l-.46-.68a1.12,1.12,0,0,0,.42-.3.66.66,0,0,0,.12-.38v-.3H72.93a3.49,3.49,0,0,1-.2.7,1.59,1.59,0,0,1-.32.46,1,1,0,0,1-.4.25,1.31,1.31,0,0,1-.48.08h-.28v-.87h.22a.53.53,0,0,0,.47-.34,2.76,2.76,0,0,0,.18-1.14v-.25h-.67V24.4h1.79l-.09-.19L73.06,24l.35-.12h-2v1.72a7,7,0,0,1-.06.91,1.85,1.85,0,0,1-.21.64.94.94,0,0,1-.4.39,1.41,1.41,0,0,1-.64.12h-.19v-.86h.2c.17,0,.27-.1.33-.29a3.25,3.25,0,0,0,.09-.88v-3.8Zm0,.94v.34H75v-.34Z"/><path id="路径_2144" data-name="路径 2144" class="cls-3" d="M79.19,25.62l-.32.06-.38.07-.36.08-.27.06a.72.72,0,0,1-.46,0,.45.45,0,0,1-.24-.21.53.53,0,0,1,0-.35,1,1,0,0,1,.22-.41c.06-.07.13-.19.23-.34l.32-.51-.2,0-.2,0a.49.49,0,0,1-.33-.07.39.39,0,0,1-.16-.23.55.55,0,0,1,0-.31.91.91,0,0,1,.15-.33,1.82,1.82,0,0,0,.16-.26,3.49,3.49,0,0,0,.24-.44c.09-.16.17-.34.26-.53s.17-.37.24-.55l.76.3-.22.46c-.07.17-.15.33-.23.48l-.23.41a.88.88,0,0,1-.19.24l.43,0,.18-.35c.06-.11.11-.22.16-.33l.7.34a4,4,0,0,1-.26.56l-.33.6-.34.54-.28.41,1-.21Zm.17,1.26-.25.05-.4.08-.46.1-.47.09-.39.09-.25.06L77,26.51l.25,0,.4-.07.47-.09.47-.09.4-.08.27-.06Zm1,.65v.17h-.81V24.4h-.41v-.84h.2a.23.23,0,0,0,.12-.06.33.33,0,0,0,.06-.19V21.49h.84v1h1l-.22-.35a3.11,3.11,0,0,0-.2-.3l.64-.39.62.93-.18.11h1v.79H82v.66h1v.77H82v.65h1v.77H82v.67h1.2v.78Zm0-3.64h.86v-.66h-.86Zm0,1.42h.86v-.65h-.86Zm0,1.44h.86v-.67h-.86Z"/><path id="路径_2145" data-name="路径 2145" class="cls-3" d="M84.64,21.6h.82v6.09h-.8v-3a1.19,1.19,0,0,1-.37.06h-.23v-.8h.18a.33.33,0,0,0,.28-.16,1.09,1.09,0,0,0,.12-.56Zm4.77,3.32a12,12,0,0,1-1.15.39q-.63.17-1.26.27l-.2-.73c.38-.06.73-.14,1.06-.21a9.72,9.72,0,0,0,1-.29l-.18,0-.16,0a6,6,0,0,1-1.34.15h-.49v-.67h.89a1.46,1.46,0,0,1-.3-.53l-.15.16a1.29,1.29,0,0,1-.15.17l-.49-.4v3.39h-.71V22.46h.71V23a10.46,10.46,0,0,0,.65-.84,7,7,0,0,0,.44-.8l.7.25c0,.06,0,.1-.07.16l-.08.15h1.33a.67.67,0,0,1,.52.16.55.55,0,0,1,.15.42v.15a1.38,1.38,0,0,1-.11.57,1.36,1.36,0,0,1-.39.5h.74v.67h-.64l-.49,0Zm1,1.79a12.66,12.66,0,0,1-1.91.76,11,11,0,0,1-2.06.4l-.21-.73a9.38,9.38,0,0,0,2-.35A9.56,9.56,0,0,0,90.08,26Zm-.51-.92a6.37,6.37,0,0,1-.68.28c-.24.1-.5.18-.77.27s-.55.15-.82.21-.55.11-.81.15L86.65,26a11.7,11.7,0,0,0,1.54-.32,8.8,8.8,0,0,0,1.4-.54Zm-2.09-3.18a1.25,1.25,0,0,0,.19.53,1.12,1.12,0,0,0,.5.41,2,2,0,0,0,.38-.2,1.36,1.36,0,0,0,.24-.24,1,1,0,0,0,.12-.25.73.73,0,0,0,0-.25Z"/></g><g id="组_635" data-name="组 635"><path id="路径_2146" data-name="路径 2146" class="cls-3" d="M56.27,31.31c0,.19-.05.38-.08.56a4.42,4.42,0,0,1-.14.52h.38v4.33h-1v-3a3.28,3.28,0,0,1-1,1,2.69,2.69,0,0,1-1.36.36h-.4v-1H53a1.66,1.66,0,0,0,.73-.17,2.28,2.28,0,0,0,.67-.52,3.38,3.38,0,0,0,.53-.87,4.71,4.71,0,0,0,.32-1.21H52.84v-1h6.21v1Zm2.4,3.91c-.15-.16-.31-.33-.5-.51l-.54-.54-.56-.53-.53-.48.62-.68.53.43.6.5.59.5.51.46Z"/><path id="路径_2147" data-name="路径 2147" class="cls-3" d="M64.32,31.58H63V32h-.92v-.39H60.37v-.92h1.68V30H63v.66h1.35V30h.93v.66h1.66v.92H65.25V32h-.93Zm-2.15.55v4.66h-.92v-2l-.32,0h-.46v-.95h.4a.39.39,0,0,0,.25-.1.35.35,0,0,0,.11-.27V32.13ZM67,36.72H64.69a1.07,1.07,0,0,1-.71-.2,1,1,0,0,1-.23-.75v-.92l-.38,0h-.88V34h.85l.41,0V32.13h1v1.5a3,3,0,0,0,.74-.54,5,5,0,0,0,.66-.86l.85.49a5.37,5.37,0,0,1-1,1.21,3.85,3.85,0,0,1-1.23.7v.78a.43.43,0,0,0,.09.3.42.42,0,0,0,.29.07H67Z"/><path id="路径_2148" data-name="路径 2148" class="cls-3" d="M74.72,36.74H72.31a1,1,0,0,1-.72-.21,1,1,0,0,1-.22-.74,2.22,2.22,0,0,1-.56.45,3.82,3.82,0,0,1-.72.31,4.59,4.59,0,0,1-.82.17,6.79,6.79,0,0,1-.9.05h-.24v-.92h.27a6,6,0,0,0,.85-.05,3.12,3.12,0,0,0,.73-.18,1.53,1.53,0,0,0,.56-.34,1.27,1.27,0,0,0,.31-.54H69.56v.17h-.87V33.35h-.38v-.88h.41a.44.44,0,0,0,.38-.15,1,1,0,0,0,.1-.5v-.54h.9v.34H73a.67.67,0,0,1,.34.1.6.6,0,0,1,.22.23.55.55,0,0,1,0,.28.39.39,0,0,1-.17.25l-.27.19h.44a.57.57,0,0,1,.44.17.6.6,0,0,1,.15.45v1.62h-.87v-.17h-.21l.41.35.42.34-.4.48h1.21Zm-1.19-5.67H69.09v.86h-.94V30h.94v.22H73.7a.77.77,0,0,1,.6.19.72.72,0,0,1,.18.5v1h-1Zm-4,2.92h1.33v-.58H69.56Zm.51-1.72a1.69,1.69,0,0,1-.08.39h1.83l.5-.39Zm1.77,2.47a1.29,1.29,0,0,1,0,.19.84.84,0,0,1,0,.17h.53v.33a.68.68,0,0,0,.06.34.26.26,0,0,0,.26.13h.59l-.38-.34-.33-.32.42-.5Zm0-1.34V34H73.3V33.4Z"/><path id="路径_2149" data-name="路径 2149" class="cls-3" d="M76.4,32.56v1.37c0,.32,0,.6,0,.85a3,3,0,0,1-.11.6.75.75,0,0,1-.23.37.65.65,0,0,1-.4.12h-.15V35h.1a.05.05,0,0,0,0,0,.28.28,0,0,0,0-.15,2.45,2.45,0,0,0,0-.32V32.56Zm1-.4v.54l.21-.17.74.9v-.57h1.32V31.31H78.28v-1h3.89v1H80.73v1.55h1.34v.94H80.74v1.77h1.73v1H78v-1h1.73V33.8H78.49l-.58.47-.47-.63v3.1h-.93V32.15h-.89v-.91h.89V30h.93v1.25h.8v.92Z"/><path id="路径_2150" data-name="路径 2150" class="cls-3" d="M84.73,30.05v.78H86v.89H84.45a.78.78,0,0,1-.34.17,1.48,1.48,0,0,1-.47.05H83.4v-.87h.18a.24.24,0,0,0,.16-.07.26.26,0,0,0,.08-.2v-.75Zm.41,3v.58H86v.89h-.89v.77a.54.54,0,0,0,.15.38,1.35,1.35,0,0,0,.44.31l-.52.85a1.8,1.8,0,0,1-.76-.58,1.23,1.23,0,0,1-.21-.74v-1h-.8v-.89h.8v-.58H83.6v-.9h2.29v.9Zm2.72.57c0,.18.06.36.1.53a3.75,3.75,0,0,0,.12.43,7.9,7.9,0,0,0,.8-.53,5.34,5.34,0,0,0,.66-.6l.6.64a4.5,4.5,0,0,1-.7.68,9.73,9.73,0,0,1-.9.64,1,1,0,0,0,.43.29,1.49,1.49,0,0,0,.47.07h.66v.94h-.72a2.7,2.7,0,0,1-1-.18,1.85,1.85,0,0,1-.76-.62c-.24.12-.47.22-.7.32s-.46.18-.68.25l-.35-.92c.21-.06.42-.14.63-.22s.44-.18.67-.29a5.84,5.84,0,0,1-.3-1.3l-.82.1L86,33l.82-.1a2.45,2.45,0,0,1,0-.27c0-.09,0-.18,0-.28l-.67.08-.07-.86.73-.08V30.05h1V31.4l.88-.1-.75-.77.56-.5.2.19.23.23.24.23.21.22-.42.36.9-.1.08.85-2.14.24,0,.53L90,32.49l.08.87Z"/></g><g id="组_640" data-name="组 640"><g id="组_533" data-name="组 533"><g id="路径_1407" data-name="路径 1407"><path id="路径_2151" data-name="路径 2151" class="cls-4" d="M40.27,32.08a9.93,9.93,0,0,1,.2,3l-.73.63L37.83,48.86l-1.25-.2,1.91-13.12L38,34.71A9.87,9.87,0,0,1,39,31.88,1.47,1.47,0,0,1,40.27,32.08Z"/></g><g id="组_637" data-name="组 637" class="cls-5"><path id="路径_2152" data-name="路径 2152" class="cls-6" d="M40.27,32.08a9.93,9.93,0,0,1,.2,3l-.73.63L37.83,48.86l-1.25-.2,1.91-13.12L38,34.71A9.87,9.87,0,0,1,39,31.88,1.47,1.47,0,0,1,40.27,32.08Z"/><g class="cls-7"><g id="组_636" data-name="组 636"><g id="组_532" data-name="组 532"><g id="矩形_645" data-name="矩形 645" class="cls-8"><path id="路径_2153" data-name="路径 2153" class="cls-6" d="M36.94,33.05l2.92-2.54,3,4.79-2.92,2.53Z"/></g></g></g></g></g></g><g id="组_535" data-name="组 535"><g id="路径_1409" data-name="路径 1409"><path id="路径_2155" data-name="路径 2155" class="cls-4" d="M39.07,48.36c0,.28-.37,1-1.92.75s-1.66-1-1.62-1.31l.63-4.3s.53-.26.59-.7a1.19,1.19,0,0,0-.36-.86l.2-1.4,3.53.56-.2,1.4s-.53.26-.59.7a1.2,1.2,0,0,0,.36.86Z"/></g><g id="组_639" data-name="组 639"><g class="cls-9"><g id="组_638" data-name="组 638"><g id="组_534" data-name="组 534"><g id="矩形_646" data-name="矩形 646" class="cls-10"><path id="路径_2156" data-name="路径 2156" d="M36.17,41.91l4.2.66-.23,1.56-4.2-.67Z"/></g><g id="路径_1410" data-name="路径 1410" class="cls-10"><path id="路径_2157" data-name="路径 2157" d="M37.7,49.68a.76.76,0,0,0,.55.89A.74.74,0,0,0,39,49.9h0l.59-4a.75.75,0,0,0-.55-.88.73.73,0,0,0-.78.66h0Z"/></g><g id="路径_1411" data-name="路径 1411" class="cls-8"><path id="路径_2158" data-name="路径 2158" class="cls-6" d="M35.14,49.27a.75.75,0,0,0,.53.9.73.73,0,0,0,.79-.64h0v0l.59-4a.75.75,0,0,0-.55-.88.73.73,0,0,0-.78.67h0Z"/></g></g></g></g></g></g></g><g id="组_641" data-name="组 641"><path id="路径_2160-2" data-name="路径 2160-2" class="cls-3" d="M62.47,55.83l-1.67-.14c.11-1.27.21-2.68.31-4.2a27.13,27.13,0,0,1-6.79-3.28l.93-1.39a25.79,25.79,0,0,0,7,3.26l.64.19,0,.67C62.72,52.72,62.59,54.36,62.47,55.83Z"/><path id="路径_2161-2" data-name="路径 2161-2" class="cls-3" d="M78,55.08c-.18-1.36-.36-2.86-.54-4.46L77.41,50l.63-.22a25.73,25.73,0,0,0,3.63-47l.17,9.52-12.5,7-12.82-7-.17-8.9a25.15,25.15,0,0,0-4.17,3.09L51.05,5.17a27.45,27.45,0,0,1,5.73-4L58,.53l.2,10.68,11.15,6.08,10.81-6.06L79.94,0l1.22.56a27.4,27.4,0,0,1-1.94,50.52c.16,1.35.31,2.62.46,3.78Z"/></g></g></g></g></svg>