<svg xmlns="http://www.w3.org/2000/svg" viewBox="0 0 90.16 56.42"><defs><style>.cls-1{fill:#fbc02d;}.cls-2{fill:#4d5dca;}.cls-3{fill:#f9a01b;}.cls-4{fill:#ff9b57;}.cls-5{fill:#f77219;}</style></defs><g id="图层_2" data-name="图层 2"><g id="图层_1-2" data-name="图层 1"><g id="组_2908" data-name="组 2908"><g id="组_658" data-name="组 658"><rect id="矩形_659" data-name="矩形 659" class="cls-1" x="61.78" y="41.51" width="21.02" height="1.42"/></g><g id="组_659" data-name="组 659"><rect id="矩形_660" data-name="矩形 660" class="cls-1" x="61.78" y="45.77" width="21.02" height="1.42"/></g><g id="组_660" data-name="组 660"><path id="路径_2218" data-name="路径 2218" class="cls-2" d="M9,20.51c-1,.17-2,.34-2.75.5s-1.56.34-2.31.52a2.5,2.5,0,0,1-1.53,0,1.13,1.13,0,0,1-.69-.74,1.84,1.84,0,0,1,.12-1.2,4.12,4.12,0,0,1,.93-1.36q.36-.37,1.05-1.14c.46-.51,1-1.08,1.51-1.73l-.69.05c-.22,0-.45,0-.67.06a1.44,1.44,0,0,1-1-.21,1.12,1.12,0,0,1-.43-.76,2.07,2.07,0,0,1,.15-1,3.16,3.16,0,0,1,.69-1.08c.13-.16.36-.44.67-.86s.66-.9,1-1.46.76-1.15,1.16-1.78S7,7,7.28,6.45L9.81,7.56c-.29.47-.61,1-1,1.52s-.73,1.07-1.1,1.56-.7.93-1,1.32a5.1,5.1,0,0,1-.76.78l1.56-.09c.29-.4.58-.78.85-1.14s.52-.72.75-1.06l2,1V11.4L13,11.22l.7-4.42h3L16,10.89l2.69-.3-1-1.24c-.37-.45-.7-.84-1-1.18L18.7,6.55l.58.62.66.72q.35.38.66.75l.59.73-1.52,1.11,3-.33-.16,2.59-6.9.77c-.08.52-.14,1-.17,1.5l7.14-.83-.18,2.63-2,.23,1.48,1.78a39.81,39.81,0,0,1-5.23,4.12A3.17,3.17,0,0,0,18,24a3.92,3.92,0,0,0,1.32.26h2L20.84,27H18.62A6.35,6.35,0,0,1,16,26.49a5,5,0,0,1-2.1-1.84c-.78.43-1.57.83-2.38,1.2s-1.62.71-2.46,1l-.67-2.31-1.07.23-1.43.31-1.58.37-1.53.36-1.26.29c-.36.08-.62.15-.77.2l0-2.71.9-.18L3,23.11l1.7-.38,1.71-.4L7.91,22c.44-.11.76-.19,1-.26L8.75,24c.73-.26,1.44-.53,2.11-.82s1.34-.59,2-.93a16.24,16.24,0,0,1-.37-1.92A19.93,19.93,0,0,1,12.33,18l-2.61.3.17-2.68,2.56-.3c0-.24,0-.49.06-.74s.06-.5.09-.76L11,14l.11-1.73c-.42.6-.89,1.23-1.42,1.9s-1,1.29-1.56,1.88-1,1.12-1.38,1.58-.72.77-.92,1l3.58-.84Zm6.64.14q1.3-.82,2.52-1.77c.78-.61,1.48-1.21,2.12-1.82l-5,.58c0,.6.05,1.15.11,1.66a10.66,10.66,0,0,0,.25,1.35Z"/><path id="路径_2219" data-name="路径 2219" class="cls-2" d="M37.08,15.47l-1.3,8.16h9.35l-.46,2.89H24.06l.46-2.89h8.21L35.41,6.7h3.05l-.93,5.92H45.6l-.45,2.85Z"/></g><g id="组_661" data-name="组 661"><path id="路径_2220" data-name="路径 2220" class="cls-1" d="M52,24.71v-1h6.71v1Zm.44-5.05v-1h5.84v1ZM52.74,22v-1h5.18v1Z"/><path id="路径_2221" data-name="路径 2221" class="cls-1" d="M61.05,20H59.82V19h2.93l-.3-.63.94-.31.23.46q.14.26.24.48h2.65V20h-4.4v.44c0,.15,0,.29,0,.42h3.33a.77.77,0,0,1,.52.22.71.71,0,0,1,.2.54v2.1a2.59,2.59,0,0,1,0,.48,1.11,1.11,0,0,1-.16.39,1.57,1.57,0,0,1-.34.34,2.77,2.77,0,0,1-.55.33l-.56-.88A1.32,1.32,0,0,0,65,24a.67.67,0,0,0,.14-.43V21.8H62a10,10,0,0,1-.22,1.54,3.56,3.56,0,0,1-.38,1,1.48,1.48,0,0,1-.57.54,1.68,1.68,0,0,1-.76.16h-.46V24H60a.6.6,0,0,0,.49-.27,1.72,1.72,0,0,0,.21-.43,4.52,4.52,0,0,0,.16-.73c.05-.3.08-.66.11-1.08s0-.92,0-1.5Z"/><path id="路径_2222" data-name="路径 2222" class="cls-1" d="M74.35,25H72.13a2,2,0,0,1-.55-.05.78.78,0,0,1-.36-.19.72.72,0,0,1-.2-.36A2.08,2.08,0,0,1,71,23.8v-.16a2.32,2.32,0,0,1-1.12,1.11,4.37,4.37,0,0,1-1.85.33h-.33v-1H68A4.29,4.29,0,0,0,69,24a1.52,1.52,0,0,0,.76-.49,2.6,2.6,0,0,0,.49-1.05,7.93,7.93,0,0,0,.17-1.81v-.84h1.06v.84c0,.3,0,.57,0,.82s0,.49-.08.72H72v1.4a.47.47,0,0,0,.08.31.48.48,0,0,0,.33.08h2Zm-1.8-2.09v-3.5H69.42v3.5h-1V18.22h1v.2h3.2a1.08,1.08,0,0,1,.72.2.75.75,0,0,1,.25.63v3.61Z"/><path id="路径_2223" data-name="路径 2223" class="cls-1" d="M80.55,22.05v1.83H82.2v1h-5v-.8l-.16.13-.16.14a.7.7,0,0,1-.27.14.53.53,0,0,1-.25,0,.53.53,0,0,1-.2-.16.47.47,0,0,1-.07-.28V21.35h-.67v-.94h.74a1.71,1.71,0,0,1,.39,0,.5.5,0,0,1,.26.13.41.41,0,0,1,.15.24,1.37,1.37,0,0,1,0,.4V23l.5-.42.27,1-.36.28h.51V20.39h1v3.49h.72V19.5h-1.9v-1H82v1H80.55v1.58h1.38v1Zm-4-1.92-.22-.3-.28-.37-.28-.36-.22-.3.81-.56.23.28.27.34.27.35.24.31Z"/></g><g id="组_662" data-name="组 662"><path id="路径_2224" data-name="路径 2224" class="cls-1" d="M52.56,29.06h.62v4.4h-.61V31.31a.58.58,0,0,1-.14,0H52v-.59h.17a.33.33,0,0,0,.24-.12.62.62,0,0,0,.11-.4Zm1.1,2.87h.61v.32c0,.15,0,.29,0,.43a1.38,1.38,0,0,1-.09.39.64.64,0,0,1-.22.27.77.77,0,0,1-.42.1H53.3v-.56h.19a.11.11,0,0,0,.08,0,.31.31,0,0,0,0-.1.63.63,0,0,0,0-.19,2.82,2.82,0,0,0,0-.31Zm.93-.1h-1.2v-.57h1.2v-.33h-.37V31h-.63V29h.63v.13h1.61a.42.42,0,0,1,.35.13.48.48,0,0,1,.1.33V31h-.62v-.11h-.44v.33H56.5v.57H55.22v1.64h-.63Zm-.37-2.06v.58h1.44v-.58Zm1.91,2.48a2.73,2.73,0,0,0,0,.31.58.58,0,0,0,0,.19.31.31,0,0,0,0,.1.11.11,0,0,0,.08,0h.18v.56h-.23a.66.66,0,0,1-.41-.1.58.58,0,0,1-.22-.27,1.24,1.24,0,0,1-.09-.38c0-.15,0-.29,0-.43v-.32h.62Z"/><path id="路径_2225" data-name="路径 2225" class="cls-1" d="M57.32,29.17h1.21a.47.47,0,0,1,.17,0,.37.37,0,0,1,.13.12.48.48,0,0,1,.06.18.46.46,0,0,1,0,.23l-.4,1.12a2.48,2.48,0,0,1,.19.26,1.33,1.33,0,0,1,.11.24,1,1,0,0,1,.07.25,2.71,2.71,0,0,1,0,.29.84.84,0,0,1-.17.57,1.69,1.69,0,0,1-.56.4l-.25-.43v1h-.53Zm.52,3.21.2-.11.14-.11a.91.91,0,0,0,.07-.14.55.55,0,0,0,0-.18,1.07,1.07,0,0,0-.07-.39,1.24,1.24,0,0,0-.34-.48l.41-1.24h-.43Zm1.6-1.76v.08h1.49a.55.55,0,0,1,.37.1.47.47,0,0,1,.11.34V32.4h-.57v-.08h-.37v.21h1.18V33H60.47v.46h-.64V33H58.64v-.48h1.19v-.21h-.39v.08h-.56V30.62ZM61,30.08h.65v.48H58.74v-.48h.53l-.15-.24.17-.09h-.38V29.3h1a1,1,0,0,0-.07-.15,1.47,1.47,0,0,1-.06-.14l.56-.16.2.45h1v.45H61l.18.09Zm-1.57,1.07v.14h1.4v-.14Zm0,.72h1.4v-.15h-1.4Zm1-1.79a1.35,1.35,0,0,0,.19-.33H59.7a1.63,1.63,0,0,1,.11.17l.1.16Z"/><path id="路径_2226" data-name="路径 2226" class="cls-1" d="M63.12,31.43a2.1,2.1,0,0,0,.09.61,1.92,1.92,0,0,0,.22.51,1.92,1.92,0,0,0,.22-.51,2.1,2.1,0,0,0,.09-.61V29.87H62.4v-.63H64a.3.3,0,0,1,.3.15.59.59,0,0,1,.09.36v1.56c0,.13,0,.26,0,.38a2.79,2.79,0,0,1-.07.4c0,.13-.08.26-.13.39a2.21,2.21,0,0,1-.16.35h.44v.57h-.71a.73.73,0,0,1-.3-.06.71.71,0,0,1-.28.06h-.81v-.57h.52a2.16,2.16,0,0,1-.17-.34,2.91,2.91,0,0,1-.12-.39,2.79,2.79,0,0,1-.07-.4,2.42,2.42,0,0,1,0-.38V30.08h.64Zm2.14,0a2.3,2.3,0,0,0,.1.63,1.93,1.93,0,0,0,.26.49,1.67,1.67,0,0,0,.23-.51,2.09,2.09,0,0,0,.08-.61V29.86H64.54v-.64h1.65a.46.46,0,0,1,.29.13.53.53,0,0,1,.1.35v1.6c0,.14,0,.27,0,.41a2.76,2.76,0,0,1-.06.4c0,.13-.07.25-.11.37a3.54,3.54,0,0,1-.16.34h.51v.57H66a1.26,1.26,0,0,1-.38-.06,1,1,0,0,1-.35.06h-.81v-.57H65a2.39,2.39,0,0,1-.3-.72,3.58,3.58,0,0,1-.1-.8V30.06h.64Z"/><path id="路径_2227" data-name="路径 2227" class="cls-1" d="M68.27,30.16h-.8v-.62h1.91a3.91,3.91,0,0,0-.2-.41l.61-.2.16.3.15.32h1.73v.61H69v.29a2.26,2.26,0,0,1,0,.27h2.18a.64.64,0,0,1,.34.14.53.53,0,0,1,.13.36v1.37a1.63,1.63,0,0,1,0,.31.77.77,0,0,1-.1.25.92.92,0,0,1-.22.22,1.65,1.65,0,0,1-.36.22L70.52,33a.85.85,0,0,0,.31-.21.52.52,0,0,0,.09-.29V31.35h-2a5.62,5.62,0,0,1-.15,1,1.91,1.91,0,0,1-.25.65.89.89,0,0,1-.36.36,1.09,1.09,0,0,1-.5.1h-.3v-.67h.25a.35.35,0,0,0,.17,0,.4.4,0,0,0,.15-.14,1.22,1.22,0,0,0,.14-.28,2.46,2.46,0,0,0,.1-.47,6.11,6.11,0,0,0,.07-.7c0-.27,0-.6,0-1Z"/><path id="路径_2228" data-name="路径 2228" class="cls-1" d="M73.08,30.69v.91c0,.21,0,.4,0,.56a1.77,1.77,0,0,1-.08.4.49.49,0,0,1-.16.24.38.38,0,0,1-.27.08h-.13V32.3h.1s0,0,0,0a.3.3,0,0,0,0-.1,1.49,1.49,0,0,0,0-.21V30.69Zm.69-.25v.4l.16-.14.12.13.14.16.15.16.12.14c0-.08,0-.17,0-.26v-.94h.64v.65a5.58,5.58,0,0,0,.12,1,2.18,2.18,0,0,0,.34.78,1.39,1.39,0,0,0,.25-.38,2.48,2.48,0,0,0,.17-.48,3.47,3.47,0,0,0,.11-.56,4.3,4.3,0,0,0,0-.62v-.6H74.29v-.64h1.86c.43,0,.65.2.65.6v.64a5.32,5.32,0,0,1,0,.69,4.9,4.9,0,0,1-.11.65,3.81,3.81,0,0,1-.19.57,2.36,2.36,0,0,1-.29.48H77v.61h-.83l-.32,0a1.4,1.4,0,0,1-.29-.09,1.47,1.47,0,0,1-.59.11h-.82v-.61h.81a2.63,2.63,0,0,1-.3-.66,4.12,4.12,0,0,1-.15-.84l-.4.36-.3-.36v2.1h-.62v-3h-.64v-.62h.64V29h.62v.83h.47v.62Z"/><path id="路径_2229" data-name="路径 2229" class="cls-1" d="M77.63,33.41v-.56h.48V31.74l-.11.07-.35-.51.29-.19.38-.25.4-.27.33-.23H77.74v-.57h1c0-.09-.08-.19-.13-.29l-.12-.29.6-.25.21.44.18.4h.8l.4-.83.58.28c-.05.09-.09.19-.13.28s-.09.18-.13.27h1v.56H80.6l.32.22.41.26.4.25.31.18-.33.52-.06,0-.06,0a.83.83,0,0,1,0,.22v.92h.45v.57Zm1.88-2.62-.15.1-.19.13-.24.17-.24.16H81l-.25-.16L80.51,31l-.2-.13-.15-.1.34-.46H79.17Zm-.81,2.06h.39v-.94H78.7Zm1,0h.4v-.94h-.4Zm1-.94v.94H81v-.94Z"/></g><g id="组_663" data-name="组 663"><path id="路径_2230" data-name="路径 2230" class="cls-2" d="M25.46,41.65c-.11.19-.25.42-.41.71s-.35.58-.55.91l-.65,1c-.22.35-.44.7-.67,1h3.38l-.35,2.25H9.37l.36-2.25H13c-.08-.25-.16-.55-.26-.88s-.19-.66-.3-1-.21-.66-.32-1-.19-.58-.26-.81l2.25-1.08c.08.22.17.49.28.82s.23.68.35,1l.35,1c.11.36.2.66.28.91l-1.87.94h7l.85-1.24c.32-.46.62-.91.92-1.36s.57-.86.82-1.25.43-.68.56-.9Zm-2.27-8.37H23a3.27,3.27,0,0,1-1.67,1.13,1.46,1.46,0,0,1,1.52.81,3.33,3.33,0,0,0,.88,1.34,3.67,3.67,0,0,0,1.18.72,5.24,5.24,0,0,0,1.29.29c.43,0,.83.06,1.19.06h.8l-.35,2.17h-.92c-.3,0-.63,0-1,0a9.48,9.48,0,0,1-1.07-.14l-.14.89H19.06l.29.85c.11.33.22.66.32,1s.21.65.31,1,.18.57.26.79l-2.31,1.15c-.06-.25-.15-.56-.26-.92s-.23-.73-.35-1.11L17,42.1l-.29-.9,1.43-.69H13.3l.14-.91c-.41.07-.8.12-1.18.15a10.09,10.09,0,0,1-1,.06h-.84l.34-2.17h.76a9.56,9.56,0,0,0,1.2-.11,10.22,10.22,0,0,0,1.54-.39,8,8,0,0,0,1.53-.74A4,4,0,0,0,17,35.23l.18-.25-.86.53L15,33.64a3.25,3.25,0,0,1-1.31.78,6,6,0,0,1-1.63.22h-.64l.32-2h.38a1.39,1.39,0,0,0,1.1-.46,2.57,2.57,0,0,0,.54-1.32l.13-.83h2.52l-.13.83,0,.26a1.42,1.42,0,0,1-.05.22h4.12l-.2,1.28A1.36,1.36,0,0,0,21,32a2.74,2.74,0,0,0,.45-1.2l.13-.83h2.5l-.13.83,0,.26a.79.79,0,0,1-.06.22h5.37l-.32,2h-3l.5.74.38.54-2,1.09ZM18.85,36.4a7,7,0,0,1-1,1.2,7.34,7.34,0,0,1-1.2.87H22a4,4,0,0,1-.87-.87,3.34,3.34,0,0,1-.54-1.2ZM18,34.49a2.42,2.42,0,0,1,.71-.08H19l.18-1.13H17.7c.15.19.28.36.4.53l.3.42Z"/><path id="路径_2231" data-name="路径 2231" class="cls-2" d="M37.75,45.86,36.9,46l-1.4.27-1.67.31-1.67.32-1.4.29-.84.18L30,44.73c.17,0,.45-.06.86-.14l1.42-.26L34,44l1.69-.35,1.43-.3c.42-.08.73-.16.92-.21ZM43,30.26l-.35,2.23h3.92a2,2,0,0,1,1.78.62,2.58,2.58,0,0,1,.22,1.81l-1.51,9.55A3.8,3.8,0,0,1,46,46.62a8,8,0,0,1-2.38,1.52l-1.15-2.21a7.29,7.29,0,0,0,1.39-.78,1.57,1.57,0,0,0,.62-1L45.91,35H42.17A2.46,2.46,0,0,1,41,36.44a4,4,0,0,1-1.9.41H38.5l.27-1.7c-.38.51-.79,1.05-1.23,1.61s-.87,1.08-1.29,1.57-.79.92-1.13,1.3-.59.65-.75.79L38,39.63l-.35,2.43c-.9.15-1.77.31-2.6.47s-1.57.32-2.24.49a2.28,2.28,0,0,1-1.32,0,1,1,0,0,1-.6-.65A1.68,1.68,0,0,1,31,41.31a3.64,3.64,0,0,1,.81-1.2c.21-.21.51-.54.91-1s.83-.95,1.31-1.52l-.6,0a5.42,5.42,0,0,0-.58.06,1.22,1.22,0,0,1-.91-.19,1,1,0,0,1-.38-.66,1.9,1.9,0,0,1,.14-.91,2.69,2.69,0,0,1,.6-.95c.11-.14.31-.39.58-.75s.57-.8.9-1.28.67-1,1-1.56.65-1.09.93-1.6l2.19,1c-.25.41-.54.85-.85,1.33s-.64.93-.95,1.37-.61.81-.88,1.15a4.33,4.33,0,0,1-.66.69l1.35-.08c.26-.35.5-.69.74-1s.45-.62.65-.92l2,1-.07.1h.24a.48.48,0,0,0,.38-.2,1.28,1.28,0,0,0,.22-.57l.54-3.42ZM41.85,42.87l-.5-1c-.2-.4-.39-.8-.58-1.2s-.39-.8-.59-1.17-.36-.68-.51-.94l2.09-1.44c.16.28.34.61.56,1L43,39.18c.22.39.43.78.65,1.16l.58,1Z"/></g><g id="路径_1163" data-name="路径 1163"><path id="路径_2232" data-name="路径 2232" class="cls-1" d="M1.05,48.48C-.06,44.62,0,44.84,0,44.61L2,32a2.88,2.88,0,0,1,2.75-2.37,2,2,0,0,1,2,1.91,1.75,1.75,0,0,1,0,.46h0l-2,12.64c0,.23.07,0-2.26,3.88a.89.89,0,0,1-1.1.41A.6.6,0,0,1,1.05,48.48Z"/></g><g id="组_279" data-name="组 279"><g id="路径_1164" data-name="路径 1164"><path id="路径_2233" data-name="路径 2233" class="cls-3" d="M4.75,44.61,6.75,32a2,2,0,0,0-1.53-2.33,1.75,1.75,0,0,0-.46,0h0L1.7,49a.94.94,0,0,0,.8-.46C4.82,44.62,4.72,44.84,4.75,44.61Z"/></g><g id="路径_1165" data-name="路径 1165"><path id="路径_2234" data-name="路径 2234" class="cls-4" d="M.14,43.82,0,44.61c0,.21,0,.29.15.79H4.35c.29-.48.37-.58.4-.79l.13-.79Z"/></g></g><g id="路径_1167" data-name="路径 1167"><path id="路径_2235-2" data-name="路径 2235-2" class="cls-1" d="M87.2,56.41H44.29a2.76,2.76,0,0,1-2.95-2.5V51.24H43v2.67A1.24,1.24,0,0,0,44.29,55H87.2a1.23,1.23,0,0,0,1.33-1.09V2.51A1.22,1.22,0,0,0,87.2,1.43h-28a1.43,1.43,0,0,0-1,.33L49.55,9,48.42,8,57.13.73A3.21,3.21,0,0,1,59.21,0h28a2.76,2.76,0,0,1,3,2.5v51.4A2.77,2.77,0,0,1,87.2,56.41Z"/></g><g id="路径_1166" data-name="路径 1166"><path id="路径_2236" data-name="路径 2236" class="cls-5" d="M2.51,43.82,2.26,45.4H4.35c.3-.48.37-.58.4-.79l.13-.79Z"/></g></g></g></g></svg>