<svg xmlns="http://www.w3.org/2000/svg" viewBox="0 0 99.16 49.29"><defs><style>.cls-1{fill:none;}.cls-2{fill:#fbc02d;}.cls-3{opacity:0.2;}.cls-4{fill:#fff;}.cls-5{fill:#4d5dca;}</style></defs><g id="图层_2" data-name="图层 2"><g id="图层_1-2" data-name="图层 1"><g id="组_2905" data-name="组 2905"><g id="组_609" data-name="组 609"><g id="路径_1389" data-name="路径 1389"><path id="路径_2073" data-name="路径 2073" class="cls-1" d="M0,30.35H18.94V49.29H0Z"/></g><g id="_58844753_shock_color" data-name=" 58844753 shock color"><path id="路径_2074" data-name="路径 2074" class="cls-2" d="M13.25,35.88H18l-1.25,7.89H12Zm-3.14,9.47L11.86,34.3H16.6l-2-2.37H9.87L7.13,34.3l-.25,1.58H2.14l-1.75,11H14.6l.25-1.58Z"/></g><g id="_58844753_shock_color-2" data-name=" 58844753 shock color-2" class="cls-3"><path id="路径_2075" data-name="路径 2075" class="cls-4" d="M13.25,35.88H18l-1.25,7.89H12Zm-3.14,9.47L11.86,34.3H16.6l-2-2.37H9.87L7.13,34.3l-.25,1.58H2.14l-1.75,11H14.6l.25-1.58Z"/></g><g id="路径_1390" data-name="路径 1390"><path id="路径_2076" data-name="路径 2076" class="cls-2" d="M13.25,35.88,12,43.77h4.74L18,35.88Zm2.16,6.31H13.83l.25-1.58h1.58Zm.5-3.16H14.33l.25-1.58h1.58Z"/></g><g id="路径_1391" data-name="路径 1391"><path id="路径_2077" data-name="路径 2077" class="cls-4" d="M2.53,43.77H4.11l-.25,1.58H2.28ZM3,40.61H4.61l-.25,1.58H2.78Zm.5-3.15H5.11L4.86,39H3.28Zm3.74,6.31H8.85L8.6,45.35H7Zm.5-3.16H9.35L9.1,42.19H7.52Zm.5-3.15H9.85L9.6,39H8Zm.5-3.16h1.58l-.25,1.58H8.52Z"/></g></g><g id="组_610" data-name="组 610"><path id="路径_2078-2" data-name="路径 2078-2" class="cls-2" d="M99.16,46.49H57V36h1.38v8.91H97.77V19.37h-8.3V1.55H44.18V5.42H42.8V0H90.85V17.82h8.3Z"/></g><g id="组_615" data-name="组 615"><g id="组_611" data-name="组 611"><path id="路径_2079" data-name="路径 2079" class="cls-2" d="M51.28,12.69l-.18,1.14h.68l-.15.92H51l-.15.94.27-.1.28-.1.11.87-.38.13-.43.15-.2,1.25a1.63,1.63,0,0,1-.36.84,2.71,2.71,0,0,1-.85.61l-.36-.8a1.43,1.43,0,0,0,.5-.34.9.9,0,0,0,.19-.42l.12-.8-.39.14-.33.12-.09-.92.46-.14.51-.17.2-1.25h-.79l.15-.93h.78l.18-1.14Zm2.91,4.7H52.28l-.14.87h3.15l-.14.91H51.06l1-6.46H53l0,.2h3.08l-.15.9H52.84l-.11.73h2.2a.51.51,0,0,1,.42.18.59.59,0,0,1,.1.48l-.37,2.36h-.93Zm-1.6-2-.17,1h1.91l.16-1Z"/><path id="路径_2080" data-name="路径 2080" class="cls-2" d="M58.7,18.45l-.28.05-.45.09-.53.11-.52.1-.45.1L56.2,19v-.88l.29,0,.45-.09.53-.11.53-.11.46-.1.3-.07Zm1.42-5.84H61l-.09.57h1.74a.66.66,0,0,1,.33.09.39.39,0,0,1,.15.21.41.41,0,0,1,0,.27A.61.61,0,0,1,63,14l-.59.59h.12a.61.61,0,0,1,.54.19.84.84,0,0,1,.07.58l-.35,2.16H62l0-.24H59.85l-.11.74a.32.32,0,0,0,0,.27.42.42,0,0,0,.27.07h2.72l-.14.85H59.71a1.83,1.83,0,0,1-.47,0A.66.66,0,0,1,59,19a.46.46,0,0,1-.13-.3,1.55,1.55,0,0,1,0-.48l.54-3.37h-.09l0-.24c-.12.18-.26.36-.41.55l-.42.53-.37.43a3.2,3.2,0,0,1-.25.27l1.05-.24-.13.88-.45.08-.38.07-.34.08-.34.07a.82.82,0,0,1-.49,0,.33.33,0,0,1-.21-.22.71.71,0,0,1,.05-.38,1.67,1.67,0,0,1,.31-.44l.31-.34.43-.52-.42,0a.46.46,0,0,1-.34-.08.32.32,0,0,1-.14-.24.57.57,0,0,1,0-.34,1,1,0,0,1,.22-.35c0-.05.12-.14.22-.28l.34-.47.37-.58c.13-.21.25-.4.35-.59l.79.36-.32.49q-.18.27-.36.51l-.33.42a1.48,1.48,0,0,1-.24.26l.5,0c.17-.24.34-.47.48-.69l.55.28,0-.14h.19a.25.25,0,0,0,.26-.16,1.82,1.82,0,0,0,.14-.52ZM60,16.45h.64l.16-1h-.64ZM60.76,14a1.56,1.56,0,0,1-.17.37,1.44,1.44,0,0,1-.22.27h1L62,14Zm.83,1.46-.16,1h.7l.16-1Z"/><path id="路径_2081" data-name="路径 2081" class="cls-2" d="M65.23,15.54c-.11.69-.21,1.25-.29,1.68a8.1,8.1,0,0,1-.24,1,1.09,1.09,0,0,1-.28.49.6.6,0,0,1-.4.13h-.15l.15-.91h.1s0,0,.06-.06a1.71,1.71,0,0,0,.09-.3c0-.16.08-.4.14-.72s.13-.76.21-1.31ZM65,13.05h1.23a.37.37,0,0,0,.28-.09.55.55,0,0,0,.1-.26h.93a1.84,1.84,0,0,1-.32.87,1,1,0,0,1-.68.37l-.09.58h.92l-.14.88h-.92l-.61,3.85h-.88l.61-3.85h-.92l.14-.88h.91l.1-.57h-.8Zm3.69-.38,0,.2h1.82a.64.64,0,0,1,.45.19.54.54,0,0,1,.11.49l-.75,4.73h.48l-.14.9H66.35l.05-.35a.36.36,0,0,1-.28-.18,1.05,1.05,0,0,1-.08-.52c0-.34,0-.67.08-1s.14-.94.24-1.59H67c-.09.55-.15,1-.2,1.31s-.08.56-.09.72a1,1,0,0,0,0,.3s0,.06,0,.06h.1l-.06.35h.09l.89-5.61Zm-.89,5.61h1.56l.15-1H67.91Zm.29-1.84h1.57l.14-.91H68.2Zm.43-2.7-.15.93H69.9l.14-.93Z"/><path id="路径_2082" data-name="路径 2082" class="cls-2" d="M71.66,19.16l.14-.88h1.58A2.93,2.93,0,0,1,73.2,18L73,17.74l-.18-.26-.15-.2.46-.36h-.72l.14-.89h2.36l.08-.52H73.5l0-.3a10.2,10.2,0,0,1-1.07.61L72.06,15a7.28,7.28,0,0,0,1.36-.83,6,6,0,0,0,1.06-1.07.89.89,0,0,1,.31-.27,1.08,1.08,0,0,1,.46-.09h1.27a.85.85,0,0,1,.44.09.59.59,0,0,1,.25.27,3.42,3.42,0,0,0,.71,1,4.82,4.82,0,0,0,1.14.81l-.68.93a3.7,3.7,0,0,1-.47-.29,5,5,0,0,1-.43-.34l0,.28H76l-.09.52h2.35l-.14.89h-.69l.38.3-.52.53c-.19.19-.38.37-.56.53h1.58l-.14.88Zm2.08-.88h.82l.21-1.36H73.59l.7,1Zm1.47-4.73a3.78,3.78,0,0,1-.4.56,4.26,4.26,0,0,1-.52.52h2.63a2.5,2.5,0,0,1-.35-.54,2.06,2.06,0,0,1-.2-.54Zm.68,4.31.49-.45c.17-.17.33-.33.48-.5H75.72l-.21,1.37h.78Z"/><path id="路径_2083" data-name="路径 2083" class="cls-2" d="M79.81,19.17l.11-.73-.3,0h-.38l.14-.89h.33a1.49,1.49,0,0,0,.86-.3,4.08,4.08,0,0,0,.85-.81H79.67l.12-.77H82a1.62,1.62,0,0,1,.1-.18l.1-.19H80.34l.12-.77h2l.06-.18.06-.19H80.27l.13-.77h1.38l-.22-.29-.14-.18.83-.54a2,2,0,0,0,.16.21l.19.24.18.22.14.16-.26.18h1.16l.25-.24.27-.27.25-.26.2-.21.75.44-.24.25-.3.29h1.48l-.12.76H83.59l-.06.2-.06.18H86l-.12.77H83.17a1.42,1.42,0,0,0-.08.18,1.62,1.62,0,0,1-.1.18h3.34l-.12.78H82.54a4.86,4.86,0,0,1-.31.41h3.29l-.12.8H83.62l-.11.7h2.35l-.12.8Zm1.66-1.5a3.27,3.27,0,0,1-.62.43,2.56,2.56,0,0,1-.64.27h2.31l.11-.7Z"/></g><g id="组_612" data-name="组 612"><path id="路径_2084" data-name="路径 2084" class="cls-5" d="M9.14,7.94l-.09.54h4.62l-.4-1.17,2.85-1.06c.15.38.29.75.43,1.13s.27.74.39,1.1h4.17c1.88,0,2.69.78,2.44,2.34L22.89,15H20l.08-.47H16.32l.58,1.6h6.55l-.37,2.37H12.76l0,.29-.06.41a2.34,2.34,0,0,1-.09.38H20a1.53,1.53,0,0,1,1.28.61,2.16,2.16,0,0,1,.23,1.55l-.26,1.6a7.45,7.45,0,0,1-.31,1.32,3,3,0,0,1-.59,1,4.21,4.21,0,0,1-1.06.86,16.1,16.1,0,0,1-1.7.88l-1.17-2.16a4.8,4.8,0,0,0,1.53-1A2.34,2.34,0,0,0,18.53,23l.15-1H12a10.25,10.25,0,0,1-1,2.24,6.34,6.34,0,0,1-1.25,1.48,4.43,4.43,0,0,1-1.45.82,5.11,5.11,0,0,1-1.6.26h-.9l.44-2.82h.7A2.1,2.1,0,0,0,8.6,23a9.4,9.4,0,0,0,1.15-3.65l.13-.81H7.71l.38-2.37H13.9a6.13,6.13,0,0,0-.18-.61l-.21-.61,1.21-.38H8.1l-.88,5.52A21,21,0,0,1,6.56,23a6.72,6.72,0,0,1-1,2.07,3.69,3.69,0,0,1-1.5,1.24,5.07,5.07,0,0,1-2.14.41H1.31l.44-2.77H2.4a1.36,1.36,0,0,0,1.22-1,11.37,11.37,0,0,0,.73-2.82L6.29,7.94Zm-.48,3L8.49,12H20.43L20.6,11Z"/><path id="路径_2085" data-name="路径 2085" class="cls-5" d="M32.25,6.88l-.09.54H44.67A2.53,2.53,0,0,1,46.56,8a1.84,1.84,0,0,1,.32,1.57l-.61,3.84H43.39l.08-.5H31.3L30.17,20a20.82,20.82,0,0,1-.65,2.94,7.21,7.21,0,0,1-1,2.07A3.83,3.83,0,0,1,27,26.22a5.11,5.11,0,0,1-2.15.4h-.61l.44-2.77h.65a1.33,1.33,0,0,0,1.22-.94,11.16,11.16,0,0,0,.73-2.82L29.4,6.88ZM29,26.38l.36-2.28h6.15L35.65,23H30.42l.36-2.23H36l.16-1-3.48.15a1.27,1.27,0,0,1-1-.27,1,1,0,0,1-.35-.76,1.57,1.57,0,0,1,.28-.94,2.34,2.34,0,0,1,.91-.8l.93-.52c.32-.18.66-.39,1-.63h-3.4l.35-2.18H46l-.35,2.18H42.69c.47.47.91.93,1.33,1.38l1.27,1.4-2.1,1.76-.85-1-1.44.05c-.57,0-1.2,0-1.89.07l-.19,1.15h5.5L44,23h-5.5l-.18,1.15h6.78l-.36,2.27ZM31.81,9.63l-.16,1H43.82l.16-1Zm6.38,6.29a15.49,15.49,0,0,1-1.39.88c-.44.24-.85.46-1.25.65l4.75-.2-.62-.63.9-.7Z"/></g><g id="组_613" data-name="组 613"><path id="路径_2086" data-name="路径 2086" class="cls-5" d="M27.24,47.12l.07-.44H19l-.07.44H16.3l1.48-9.34H16.14l.58-3.7h2.62l-.05.32H23.6c-.05-.11-.09-.21-.14-.31s-.07-.19-.1-.28l.8-.28.17-1.09H23l.53.72-2.06,1.18-1.19-1.62a3.45,3.45,0,0,1-1.33.93,4.85,4.85,0,0,1-1.69.3h-.62L17,31.9h.37a1.39,1.39,0,0,0,1.08-.47,2.5,2.5,0,0,0,.52-1.27l.1-.6h2.46l-.1.6,0,.23a.79.79,0,0,1-.05.22h4l-.2,1.29a1.41,1.41,0,0,0,.91-.55,2.72,2.72,0,0,0,.43-1.17l.1-.59H29l-.1.59,0,.22a.73.73,0,0,1-.06.21H34l-.29,1.84H31l.3.39a2.2,2.2,0,0,1,.21.32l-1.93,1L29,33.4l-.67-.95h-.29a3.73,3.73,0,0,1-1,.92,4.19,4.19,0,0,1-1.22.5l.27.53H31a2.08,2.08,0,0,1,1.57.49,1.47,1.47,0,0,1,.33,1.3l-.22,1.39H30.49a2.28,2.28,0,0,1,.14,1.48l-.41,2.57H27.68l0-.2H19.79l-.1.67h9a1.54,1.54,0,0,1,1.4.51,2.22,2.22,0,0,1,.17,1.54l-.47,3ZM19,36.39l-.1.63H29.06a2.29,2.29,0,0,1,1.09.24l.14-.87Zm.42,7.6-.12.77h8.35l.12-.77Zm.8-5.07-.09.57H28l.09-.57Z"/><path id="路径_2087" data-name="路径 2087" class="cls-5" d="M50.28,46.27A10.63,10.63,0,0,1,48,43.82a9.61,9.61,0,0,1-1.34-3.22l-.7.24a13,13,0,0,1-.17,2.57,6.13,6.13,0,0,1-.35,1.32,3.77,3.77,0,0,1-.62,1,5.05,5.05,0,0,1-1,.88,13.3,13.3,0,0,1-1.4.84l-1.18-2.05a6.63,6.63,0,0,0,1.13-.65,2.37,2.37,0,0,0,.63-.71,14,14,0,0,1-3.66,1.26,19.14,19.14,0,0,1-3.46.34H34.75l.33-2.12h1.11a11.21,11.21,0,0,0,1.64-.12,14.87,14.87,0,0,0,1.88-.37,16.21,16.21,0,0,0,1.93-.65,12.37,12.37,0,0,0,1.81-.93,1.58,1.58,0,0,1,0-.31c0-.1,0-.2,0-.3A13.31,13.31,0,0,1,40,42.26a14.85,14.85,0,0,1-3.63.45H35.21l.34-2.13h1.11a12.12,12.12,0,0,0,1.48-.09,10.73,10.73,0,0,0,1.58-.3,11.31,11.31,0,0,0,1.61-.55,9.29,9.29,0,0,0,1.55-.84.94.94,0,0,1-.12-.22.71.71,0,0,0-.13-.22,13.77,13.77,0,0,1-2.93,1,14.07,14.07,0,0,1-2.89.33H35.7L36,37.52h1.11a12.37,12.37,0,0,0,2.5-.29,9.2,9.2,0,0,0,2.42-.86h-3.2l.33-2.13H50.46l-.34,2.13h-4.5c-.16.15-.31.28-.46.4l-.47.39a6.08,6.08,0,0,1,.84,1.62c.9-.31,1.83-.65,2.78-1S50.17,37,51,36.52l.76,2c-.9.42-1.92.85-3,1.3a8,8,0,0,0,3.32,4.5Zm.61-13H39.12l-.32,2H36.39l.74-4.7h2.42l-.08.51h4.66l-.38-1.44L46.24,29q.15.46.3,1t.3,1.11h4.82a1.72,1.72,0,0,1,1.46.5,1.65,1.65,0,0,1,.25,1.29L53,35.32H50.57Z"/></g><g id="组_614" data-name="组 614"><path id="路径_2088" data-name="路径 2088" class="cls-2" d="M51.42,25.39c-.11.69-.2,1.25-.28,1.68a8.76,8.76,0,0,1-.25,1,1.21,1.21,0,0,1-.28.49.64.64,0,0,1-.4.13h-.14l.14-.91h.1s0,0,.07-.07a1.32,1.32,0,0,0,.09-.3c0-.16.08-.4.13-.72s.13-.75.22-1.31Zm-.27-2.49h1.24a.38.38,0,0,0,.27-.08.52.52,0,0,0,.1-.26h.94a2.08,2.08,0,0,1-.32.87,1,1,0,0,1-.68.36l-.09.59h.91l-.14.87h-.91l-.61,3.85H51l.61-3.85h-.92l.14-.87h.92l.09-.58H51Zm3.69-.38,0,.2h1.83a.6.6,0,0,1,.44.19.55.55,0,0,1,.12.49l-.75,4.74h.47l-.14.89H52.54l.06-.35a.36.36,0,0,1-.28-.18,1.14,1.14,0,0,1-.09-.52,8.28,8.28,0,0,1,.09-1c.06-.42.13-.95.24-1.6h.6c-.09.55-.16,1-.2,1.31s-.08.56-.09.72a1,1,0,0,0,0,.3s0,.07,0,.07H53l0,.34H53l.89-5.61ZM54,28.13h1.57l.15-.95H54.1Zm.3-1.84h1.56l.14-.91H54.39Zm.42-2.7-.14.93h1.56l.15-.93Z"/><path id="路径_2089" data-name="路径 2089" class="cls-2" d="M60.19,27a7,7,0,0,1-.73.47,8.91,8.91,0,0,1-.82.43l-.38-.72a9,9,0,0,0,1-.58c.33-.22.66-.46,1-.72H58.57L58.7,25H61l.4,0-.58-.22-.5-.19.47-.71.38.12.43.15.46.16.44.15-.32.48a3.17,3.17,0,0,0,1.32-.4,1.06,1.06,0,0,0,.52-.75H60.76q-.36.26-.72.48c-.24.15-.51.3-.78.45l-.42-.69c.44-.26.86-.52,1.26-.8a12.76,12.76,0,0,0,1.15-.94l.67.56-.14.13h2.48c.59,0,.85.2.79.61l0,.17a2.25,2.25,0,0,1-.33.87,2.07,2.07,0,0,1-.74.64,4,4,0,0,1-1.22.4,10.52,10.52,0,0,1-1.77.18l.31.28,0,0h2.51a1.1,1.1,0,0,1,.64.14.43.43,0,0,1,.15.46l0,.18a2.23,2.23,0,0,1-.37.92,2.09,2.09,0,0,1-.82.68A4.64,4.64,0,0,1,62,29a11.16,11.16,0,0,1-2,.15H58l.13-.82h2.48a4,4,0,0,0,.5,0L60.38,28l-.6-.24.48-.7.38.13.44.16.47.17.45.16-.37.53A3.32,3.32,0,0,0,63,27.77a1.16,1.16,0,0,0,.51-.78Z"/><path id="路径_2090" data-name="路径 2090" class="cls-2" d="M71.67,26.16l-.09.54a2.35,2.35,0,0,1-.84,1.49,2.81,2.81,0,0,1-.7.43,4.14,4.14,0,0,1-.82.27,6,6,0,0,1-.85.15c-.29,0-.57,0-.84,0h-2l.14-.87H67.6c.31,0,.62,0,.93-.05a3.73,3.73,0,0,0,.93-.23,2,2,0,0,0,.76-.46,1.31,1.31,0,0,0,.4-.78l.08-.53Zm-3.09-2.48c-.12.24-.26.49-.42.77s-.32.54-.48.82l-.5.8c-.17.26-.33.49-.49.71l-.85-.47c.16-.2.32-.43.49-.67s.34-.5.5-.76.32-.51.47-.77.28-.51.4-.75Zm.68-1.16h1l-.68,4.3h-1Zm2.54,3.67-.3-.56c-.11-.22-.24-.45-.36-.68l-.38-.68c-.13-.21-.23-.39-.31-.53l.82-.48.33.52c.14.21.27.43.4.66l.4.65.3.53Z"/><path id="路径_2091" data-name="路径 2091" class="cls-2" d="M74.8,27.6l-.46.19L74,28a.55.55,0,0,1-.28.06.35.35,0,0,1-.22-.08.39.39,0,0,1-.13-.2.74.74,0,0,1,0-.33L74,23.13h.92l-.59,3.68.63-.25.63-4h.92L76.12,25a13.08,13.08,0,0,0,.82-1.27,14.37,14.37,0,0,0,.68-1.36l.93.24c-.14.29-.28.57-.43.84h2.39l-.15.94h-.42l-.24,1.49a6.41,6.41,0,0,1-.32,1.29,3.7,3.7,0,0,1-.54,1h.93l-.15,1h-.7a3.27,3.27,0,0,1-1.21-.2,4.34,4.34,0,0,1-.6.14,4.12,4.12,0,0,1-.7.05h-.68l.15-1h.81l.19,0a2.41,2.41,0,0,1-.18-1,6.84,6.84,0,0,1,.1-1.28l.07-.48c-.05.08-.11.15-.17.23l-.18.22L76,25.57l-.56,3.52h-.91ZM79,24.44H78l-.22,1.4A5.81,5.81,0,0,0,77.69,27a1.32,1.32,0,0,0,.23.74,2.06,2.06,0,0,0,.53-.74,4.89,4.89,0,0,0,.31-1.18Z"/><path id="路径_2092" data-name="路径 2092" class="cls-2" d="M83.18,27a8.21,8.21,0,0,1-.73.47,8,8,0,0,1-.83.43l-.37-.72c.34-.18.68-.37,1-.58s.65-.46,1-.72H81.55l.14-.82H84l.4,0-.58-.22-.5-.19.47-.71.37.12.44.15.46.16.43.15-.31.48a3.27,3.27,0,0,0,1.32-.4,1.05,1.05,0,0,0,.51-.75H83.75q-.36.26-.72.48l-.79.45-.41-.69c.44-.26.86-.52,1.25-.8a10.47,10.47,0,0,0,1.15-.94l.68.56-.15.13h2.48c.59,0,.86.2.79.61l0,.17a2.11,2.11,0,0,1-.34.87,2,2,0,0,1-.73.64,4.16,4.16,0,0,1-1.22.4,10.64,10.64,0,0,1-1.78.18l.32.28,0,0h2.52a1.1,1.1,0,0,1,.64.14.43.43,0,0,1,.15.46l0,.18a2.22,2.22,0,0,1-.36.92,2.16,2.16,0,0,1-.82.68A4.64,4.64,0,0,1,85,29a11.16,11.16,0,0,1-2,.15H81l.13-.82h2.48a4.07,4.07,0,0,0,.5,0L83.37,28l-.6-.24.48-.7.38.13.44.16.47.17.45.16-.37.53a3.28,3.28,0,0,0,1.32-.44,1.14,1.14,0,0,0,.52-.78Z"/><path id="路径_2093" data-name="路径 2093" class="cls-2" d="M94.65,26.16l-.08.54a2.51,2.51,0,0,1-.3.86,2.73,2.73,0,0,1-.54.63,2.69,2.69,0,0,1-.71.43,3.85,3.85,0,0,1-.81.27,6.19,6.19,0,0,1-.86.15c-.29,0-.56,0-.83,0h-2l.13-.87h2c.31,0,.62,0,.93-.05a3.73,3.73,0,0,0,.93-.23,2.13,2.13,0,0,0,.76-.46,1.25,1.25,0,0,0,.39-.78l.09-.53Zm-3.08-2.48c-.13.24-.26.49-.42.77l-.48.82-.5.8c-.17.26-.33.49-.49.71l-.85-.47c.16-.2.32-.43.49-.67s.34-.5.5-.76.32-.51.47-.77.28-.51.4-.75Zm.68-1.16h1l-.68,4.3h-1Zm2.53,3.67c-.07-.15-.17-.33-.29-.56L94.12,25l-.37-.68c-.13-.21-.23-.39-.31-.53l.82-.48.33.52c.14.21.27.43.4.66l.4.65.3.53Z"/></g></g></g></g></g></svg>