<svg xmlns="http://www.w3.org/2000/svg" viewBox="0 0 99.32 57.16"><defs><style>.cls-1{fill:none;}.cls-2{fill:#fbc02d;}.cls-3{opacity:0.8;}.cls-4{fill:#fff;}.cls-5{fill:#f9a01b;}.cls-6{opacity:0.4;}.cls-7{fill:#f4f4f4;}.cls-8{opacity:0.1;}.cls-9{fill:#4d5dca;}</style></defs><g id="图层_2" data-name="图层 2"><g id="图层_1-2" data-name="图层 1"><g id="组_2906" data-name="组 2906"><g id="组_523" data-name="组 523"><g id="路径_1398" data-name="路径 1398"><path id="路径_2094" data-name="路径 2094" class="cls-1" d="M23.14,35.44,19.79,49.91,5.32,46.57,8.66,32.09Z"/></g><g id="_58545722_shock_color_grid" data-name=" 58545722 shock color grid"><path id="路径_2095" data-name="路径 2095" class="cls-2" d="M19.66,42.26A5.57,5.57,0,0,0,8.8,39.75h0a.93.93,0,0,0,1.36,1,.92.92,0,0,1,1.34,1l-.24,1.07a3.09,3.09,0,0,0,2.32,3.71C16.24,47.19,19,45.26,19.66,42.26Z"/></g><g id="椭圆_18" data-name="椭圆 18" class="cls-3"><circle id="椭圆_26" data-name="椭圆 26" class="cls-4" cx="16.13" cy="37.68" r="0.89"/></g><g id="椭圆_19" data-name="椭圆 19" class="cls-3"><circle id="椭圆_27" data-name="椭圆 27" class="cls-4" cx="17.89" cy="39.9" r="0.89"/></g><g id="椭圆_20" data-name="椭圆 20" class="cls-3"><circle id="椭圆_28" data-name="椭圆 28" class="cls-4" cx="17.29" cy="42.49" r="0.89"/></g><g id="椭圆_21" data-name="椭圆 21" class="cls-3"><circle id="椭圆_29" data-name="椭圆 29" class="cls-4" cx="14.33" cy="44.42" r="0.98"/></g></g><g id="组_536" data-name="组 536"><g id="矩形_647" data-name="矩形 647"><rect id="矩形_655" data-name="矩形 655" class="cls-1" y="36.83" width="13.68" height="13.68"/></g><g id="_582244947_shock_color" data-name=" 582244947 shock color"><path id="路径_2096" data-name="路径 2096" class="cls-2" d="M10,43.9v2.89H3.1V43.9a1.14,1.14,0,0,1,1.11-1.15H6a11.49,11.49,0,0,1-1.16-3.46,1.7,1.7,0,0,1,1.66-1.73h.07a1.69,1.69,0,0,1,1.73,1.66v.07a11.75,11.75,0,0,1-1.15,3.46H8.87A1.13,1.13,0,0,1,10,43.86h0Z"/></g><g id="路径_1413" data-name="路径 1413"><path id="路径_2097" data-name="路径 2097" class="cls-5" d="M11.75,49.38a.84.84,0,0,1-.83.86H4a.85.85,0,0,1-.87-.82h0V46.79H10v.57a1.19,1.19,0,0,0,.73,1.15C11.22,48.78,11.75,48.9,11.75,49.38Z"/></g><g id="矩形_648" data-name="矩形 648" class="cls-6"><rect id="矩形_656" data-name="矩形 656" class="cls-7" x="3.21" y="44.56" width="6.54" height="1.78"/></g><g id="路径_1414" data-name="路径 1414" class="cls-8"><path id="路径_2098" data-name="路径 2098" class="cls-4" d="M11.75,49.38a.85.85,0,0,1-.83.87H4a.86.86,0,0,1-.87-.83h0v-.9h7.65C11.22,48.78,11.75,48.9,11.75,49.38Z"/></g></g><g id="_58545722_shock_color_grid-2" data-name=" 58545722 shock color grid-2"><path id="路径_2099-2" data-name="路径 2099-2" class="cls-2" d="M72.79,57.16a22.92,22.92,0,0,1-5.15-.59,16,16,0,0,1-11-8.92l1.3-.6a14.51,14.51,0,0,0,10,8.12A22.37,22.37,0,0,0,86.1,51.32a28.52,28.52,0,0,0,11.1-17A26.87,26.87,0,0,0,50.47,11l-1.1-.92A28.3,28.3,0,0,1,98.59,34.68,30,30,0,0,1,86.92,52.49,24.43,24.43,0,0,1,72.79,57.16Z"/></g><g id="_58545722_shock_color_grid-3" data-name=" 58545722 shock color grid-3"><path id="路径_2100" data-name="路径 2100" class="cls-2" d="M58.24,32.37,56.84,32A3.87,3.87,0,0,0,54,27.39h0l.32-1.4a5.31,5.31,0,0,1,4,6.34v0Z"/></g><g id="组_622" data-name="组 622"><g id="组_617" data-name="组 617"><path id="路径_2101" data-name="路径 2101" class="cls-2" d="M66.63,18.31H64.17a.7.7,0,0,1-.56-.29.83.83,0,0,1-.14-.67L64,13.82h1.21l-.55,3.46h2.1l.55-3.46h1.21l-1,6h-1.2Z"/><path id="路径_2102" data-name="路径 2102" class="cls-2" d="M73.73,14.85H70.48l-.22,1.4h2.41a.67.67,0,0,1,.57.28.93.93,0,0,1,.14.69l-.26,1.66a1.25,1.25,0,0,1-.36.69,1,1,0,0,1-.66.29H68.51l.17-1h3.24l.24-1.56H68.88l.55-3.45h4.46Z"/><path id="路径_2103" data-name="路径 2103" class="cls-2" d="M78.52,16.85A3.67,3.67,0,0,0,78.7,18a2,2,0,0,0,.44.73,1.49,1.49,0,0,0,.65.39,2.91,2.91,0,0,0,.83.11h.43l-.15,1h-.42a3.47,3.47,0,0,1-1.84-.43,2.29,2.29,0,0,1-1-1.4,3.51,3.51,0,0,1-1.38,1.4,4,4,0,0,1-1.93.43h-.41l.15-1h.34a3.12,3.12,0,0,0,.86-.11,2.29,2.29,0,0,0,.76-.39,3.24,3.24,0,0,0,.65-.73,5.33,5.33,0,0,0,.52-1.14H74.63l.16-1h2.68c0-.22.1-.45.14-.71l.08-.5H75.36l.15-1h5.78l-.15,1H78.76l-.05.32-.06.35-.06.34s0,.07,0,.1l0,.1h2.8l-.15,1Z"/></g><g id="组_618" data-name="组 618"><path id="路径_2104" data-name="路径 2104" class="cls-9" d="M13.31,12.61l-3.15,19.9H7.1l3.15-19.9ZM19,12.42l-.1.61h7.45a2.54,2.54,0,0,1,2,.64,2.56,2.56,0,0,1,.28,2L26.05,32.32H23l.19-1.16H16l-.19,1.16H12.78l3.15-19.9ZM16.49,28.26h7.17l.77-4.88H17.26Zm2-12.31-.72,4.53h7.17L25.61,16Z"/><path id="路径_2105" data-name="路径 2105" class="cls-9" d="M37.52,13.05l-.09.56h4.79L41.8,12.4l3-1.1c.15.39.3.78.44,1.16s.28.78.4,1.15h4.32c1.95,0,2.8.81,2.54,2.43l-.69,4.34h-3l.08-.49H45l.6,1.66h6.8L52,24H41.27l-.05.3c0,.14,0,.28-.07.42s0,.27-.08.4h7.71a1.55,1.55,0,0,1,1.32.63,2.16,2.16,0,0,1,.24,1.61L50.08,29a8.28,8.28,0,0,1-.33,1.37,3.13,3.13,0,0,1-.6,1,5.18,5.18,0,0,1-1.1.89,16.46,16.46,0,0,1-1.77.91L45.07,31a5,5,0,0,0,1.58-1,2.31,2.31,0,0,0,.6-1.28l.16-1h-7a11,11,0,0,1-1,2.32,6.55,6.55,0,0,1-1.29,1.53,4.58,4.58,0,0,1-1.5.85,5.26,5.26,0,0,1-1.67.27H34l.47-2.92h.72A2.17,2.17,0,0,0,37,28.64a9.52,9.52,0,0,0,1.2-3.78l.13-.85H36l.39-2.45h6c-.06-.22-.13-.43-.2-.63l-.21-.63,1.25-.4H36.43l-.9,5.72a22.28,22.28,0,0,1-.68,3,7.16,7.16,0,0,1-1.05,2.15,3.93,3.93,0,0,1-1.55,1.28,5.36,5.36,0,0,1-2.23.42h-.63l.45-2.87h.68a1.41,1.41,0,0,0,1.27-1,12.29,12.29,0,0,0,.75-2.92l2-12.69ZM37,16.18l-.18,1.12H49.22l.18-1.12Z"/></g><g id="组_619" data-name="组 619"><path id="路径_2106" data-name="路径 2106" class="cls-2" d="M63.7,26.17c0,.72,0,1.31,0,1.76A9.28,9.28,0,0,1,63.59,29a.93.93,0,0,1-.21.51.57.57,0,0,1-.39.14h-.15v-1h.1s0,0,.06-.07a1.1,1.1,0,0,0,0-.31c0-.17,0-.42,0-.76s0-.8,0-1.37ZM63,23.56h1.28a.33.33,0,0,0,.27-.09.46.46,0,0,0,.06-.28h1a1.89,1.89,0,0,1-.19.91.84.84,0,0,1-.65.39v.61h.95V26h-.95v4h-.92V26h-1V25.1h1v-.6H63Zm3.76-.4v.2h1.9a.82.82,0,0,1,.49.2.67.67,0,0,1,.2.52v5h.49V30h-4.4v-.36a.51.51,0,0,1-.32-.19,1.53,1.53,0,0,1-.17-.55,7.27,7.27,0,0,1-.07-1c0-.44,0-1,0-1.67h.62c0,.57,0,1,0,1.37s0,.59,0,.75a3.11,3.11,0,0,0,0,.32c0,.05,0,.07.06.07h.1V29h.09V23.15Zm0,1.12v1h1.62v-1Zm0,2.84h1.62v-1H66.77Zm0,1.93h1.62v-1H66.77Z"/><path id="路径_2107" data-name="路径 2107" class="cls-2" d="M71.56,23.26h1v6.8H71.6V26.75l-.21.05h-.67v-.92H71a.45.45,0,0,0,.36-.18.94.94,0,0,0,.17-.63Zm3.61.9a3.13,3.13,0,0,1-.38.78,2.37,2.37,0,0,1-.49.51,1.65,1.65,0,0,1-.6.28,2.74,2.74,0,0,1-.7.09h-.24v-1H73a.87.87,0,0,0,.39-.07,1.13,1.13,0,0,0,.34-.23,2.31,2.31,0,0,0,.31-.39,4.71,4.71,0,0,0,.32-.58.73.73,0,0,1,.28-.3,1,1,0,0,1,.47-.1h.51a1.19,1.19,0,0,1,.49.1.67.67,0,0,1,.3.3c.11.24.21.43.3.59a2.28,2.28,0,0,0,.28.39.9.9,0,0,0,.32.23,1.28,1.28,0,0,0,.43.06h.14v1h-.19a2.18,2.18,0,0,1-1.31-.4,2.11,2.11,0,0,1-.77-1.26Zm-.51,1.77v1.52a7.32,7.32,0,0,1-.1,1.24,2.59,2.59,0,0,1-.29.82,1.17,1.17,0,0,1-.49.47,1.61,1.61,0,0,1-.69.14h-.31v-.95H73a.65.65,0,0,0,.31-.08.66.66,0,0,0,.21-.29,2.4,2.4,0,0,0,.12-.53,7.58,7.58,0,0,0,0-.82V25.93Zm1.3,0h1V30H76Z"/><path id="路径_2108" data-name="路径 2108" class="cls-2" d="M82.58,26.13v2.78h3.15v1H78.79v-1h2.77V23.14h1v2H85.3v1Z"/><path id="路径_2109" data-name="路径 2109" class="cls-2" d="M88,24.79l-.27-.22-.3-.25-.31-.24-.27-.2.53-.69,1.14.86v-.66h.83a1.7,1.7,0,0,1,.5.05.61.61,0,0,1,.3.15.51.51,0,0,1,.14.26,1.64,1.64,0,0,1,0,.38V26H89.17v.8h.39a1.12,1.12,0,0,1,.4.07.68.68,0,0,1,.24.2.68.68,0,0,1,.11.3,2.53,2.53,0,0,1,0,.38v1.3a.8.8,0,0,1-.07.34,1.15,1.15,0,0,1-.21.33,1.54,1.54,0,0,1-.34.28,2.26,2.26,0,0,1-.49.19l-.38-.8a1.3,1.3,0,0,0,.46-.22.37.37,0,0,0,.16-.3v-1.2h-1.1v-.42c0,.08-.05.19-.1.34s-.09.32-.15.5l-.17.58-.16.58c-.05.19-.1.35-.14.49a3.2,3.2,0,0,1-.08.31l-.9-.25c0-.06.06-.16.1-.31s.1-.31.15-.5.11-.39.18-.6.12-.41.17-.6.1-.36.15-.5.07-.25.09-.3l.86.24V26l-.53.71-.3-.26c-.11-.1-.22-.2-.34-.29l-.34-.29a3.09,3.09,0,0,0-.31-.25l.56-.69.28.22.34.26.34.27.3.24v-.93h.79v.2h.35v-.86h-1v-.2Zm5.6-.74c-.13.16-.25.31-.38.45l-.37.41-.41.4-.48.42-.39-.45v.63h2.09v.91H93c0,.52,0,.93,0,1.22a5.2,5.2,0,0,0,.08.69.64.64,0,0,0,.14.3.31.31,0,0,0,.2.07h.25v1h-.27A1.45,1.45,0,0,1,92.8,30a.83.83,0,0,1-.39-.47,3.24,3.24,0,0,1-.21-1,15.07,15.07,0,0,1-.07-1.68h-.55v2.07l.55-.28.07,1-.32.17-.32.15c-.3.15-.52.17-.66.07s-.21-.34-.21-.72V26.82h-.33V25.9h.33V23.19h.89v1.69a4.26,4.26,0,0,0,.37-.34c.11-.1.22-.2.32-.31s.21-.22.31-.35.23-.27.36-.44Z"/></g><g id="组_620" data-name="组 620"><path id="路径_2110" data-name="路径 2110" class="cls-2" d="M62.53,40.75H63.8V35.13h-1V33.67H64.3a1.06,1.06,0,0,1,.84.41,1.42,1.42,0,0,1,.35,1v5.71h1.13V42.2h-4.1Z"/><path id="路径_2111" data-name="路径 2111" class="cls-2" d="M67.69,35.06a1.41,1.41,0,0,1,.35-1,1.11,1.11,0,0,1,.85-.4h4.29a1.11,1.11,0,0,1,.85.4,1.46,1.46,0,0,1,.35,1v5.76a1.45,1.45,0,0,1-.35,1,1.09,1.09,0,0,1-.85.41H68.89a1.09,1.09,0,0,1-.85-.41,1.38,1.38,0,0,1-.35-1h0Zm5,5.69V35.13H69.39v5.62Z"/><path id="路径_2112" data-name="路径 2112" class="cls-2" d="M75.65,35.06a1.36,1.36,0,0,1,.35-1,1.08,1.08,0,0,1,.84-.4h4.3a1.09,1.09,0,0,1,.84.4,1.41,1.41,0,0,1,.35,1v5.76a1.38,1.38,0,0,1-.35,1,1.07,1.07,0,0,1-.84.41h-4.3a1.06,1.06,0,0,1-.84-.41,1.34,1.34,0,0,1-.35-1h0Zm5,5.69V35.13H77.34v5.62Z"/><path id="路径_2113" data-name="路径 2113" class="cls-2" d="M83.61,35.89a2.34,2.34,0,0,1,.52-1.48,2.23,2.23,0,0,1,1.59-.7,3.47,3.47,0,0,1,.45.06,2.35,2.35,0,0,1,.43.13,2.3,2.3,0,0,1,.7.5,2.28,2.28,0,0,1,.53,1.5,2.64,2.64,0,0,1-.1.74,2.54,2.54,0,0,1-.43.77,2,2,0,0,1-.69.5,2.08,2.08,0,0,1-.89.17,2,2,0,0,1-1.43-.54,2,2,0,0,1-.5-.71A2.53,2.53,0,0,1,83.61,35.89Zm1.22,0a.92.92,0,0,0,.22.63.94.94,0,0,0,1.32,0h0a1,1,0,0,0,.23-.63,1,1,0,0,0-.23-.65.94.94,0,0,0-.65-.3.92.92,0,0,0-.61.24A.94.94,0,0,0,84.83,35.91Zm.4,6.29,5-8.39h1.55l-5,8.39Zm3.89-2.08a2.2,2.2,0,0,1,.53-1.47,2.11,2.11,0,0,1,1.58-.7,3.49,3.49,0,0,1,.44,0,2.49,2.49,0,0,1,.44.14,2,2,0,0,1,1.23,2,3.58,3.58,0,0,1-.11.73,2.29,2.29,0,0,1-.41.77,2.57,2.57,0,0,1-.7.48,2.44,2.44,0,0,1-.44.13,3.47,3.47,0,0,1-.45.06,2.19,2.19,0,0,1-1.45-.54,2.11,2.11,0,0,1-.49-.7,2.52,2.52,0,0,1-.17-.94Zm1.2,0a1,1,0,0,0,.22.63,1,1,0,0,0,.69.28.83.83,0,0,0,.64-.28,1,1,0,0,0,.24-.63,1,1,0,0,0-.24-.64.9.9,0,0,0-.64-.3.94.94,0,0,0-.62.24,1,1,0,0,0-.28.7Z"/></g><g id="组_621" data-name="组 621"><path id="路径_2114" data-name="路径 2114" class="cls-9" d="M25.63,38.31h0a.94.94,0,0,0,.78-.35,3,3,0,0,0,.44-1.32l.34-2.15H29.7l-.22,1.37h4.27a1.26,1.26,0,0,1,.87.27,1.17,1.17,0,0,1,.4.64,1.51,1.51,0,0,1,0,.79,1.48,1.48,0,0,1-.42.7L33,39.75h.24a2.15,2.15,0,0,1,1.61.53,1.78,1.78,0,0,1,.33,1.62l-.51,3.24h1.11l-.37,2.35H30.63a4.54,4.54,0,0,0,.88,2,2,2,0,0,0,1.63.75h2l-.35,2.25h-2a4.85,4.85,0,0,1-2.71-.66,3.57,3.57,0,0,1-1.4-2.13,5.81,5.81,0,0,1-5.09,2.79h-2l.33-2.09-.13.08L20.84,49A7,7,0,0,1,19,51.66a4,4,0,0,1-2.5.85h-.37l.43-2.68H17c.61,0,1.16-.52,1.66-1.56A21.7,21.7,0,0,0,20,43.34l-1.81.34c0-.41,0-.86,0-1.35l0-1.49c0-.51,0-1-.05-1.47s-.05-.89-.07-1.26l2.13-.45.2,3.75.09-.59,1-6.12h2.45l-.71,4.48.91-1.64,1.64.62ZM23,45.13h1.05l.7-4.38h-.4l0-.2-1.22,2.07-.5-.25c-.13.62-.25,1.21-.35,1.76s-.23,1.09-.36,1.58L22.72,47ZM24,50.25a3,3,0,0,0,1.89-.67,5.32,5.32,0,0,0,1.52-2.1H23L24,49l-1.82,1.27Zm4.77-8.19h-1.9l-.49,3.07h1.8c.08-.31.16-.64.23-1s.14-.69.2-1.08Zm.25-4a5.14,5.14,0,0,1-1,1.66h2l1.78-1.66Zm2.1,4-.17,1c0,.37-.12.73-.19,1.07s-.13.67-.21,1h1.88l.48-3.07Z"/><path id="路径_2115" data-name="路径 2115" class="cls-9" d="M41.55,47.1a19.25,19.25,0,0,1-1.45,2.26c-.56.77-1.12,1.48-1.65,2.14l-1.69-1.09a17.35,17.35,0,0,0,1.51-1.91,21.31,21.31,0,0,0,1.3-2.16H38.35l.37-2.29h3.4l.2-1.29H38.66L39,40.51H41.2c-.1-.32-.21-.64-.33-1l-.32-.94,1.05-.39H39.86L40.21,36h3.18c-.07-.29-.13-.56-.19-.83s-.1-.49-.14-.68L45.49,34l.21,1c.07.37.14.72.2,1H49l-.35,2.21H46.46l1.24.43L46.56,40.5h2.18l-.35,2.26H44.74l-.2,1.29h3.38l-.36,2.29H45.9l.35.69c.12.25.26.5.4.75l.38.74c.11.24.21.45.3.62l-2,1.34L45,49.83,44.67,49l-.36-.8c-.12-.26-.22-.49-.31-.7l-.25,1.58a4.44,4.44,0,0,1-.33,1.13,3.87,3.87,0,0,1-.62.93,5.12,5.12,0,0,1-1,.78,13.43,13.43,0,0,1-1.33.76L39.4,50.65a4.94,4.94,0,0,0,1.46-.92,1.89,1.89,0,0,0,.53-1l.37-2.36h-1.9Zm2.58-6.59c.23-.36.47-.74.72-1.15s.47-.79.68-1.15H42.82c.23.63.45,1.29.66,2l-.9.33Zm0,5.83-.15.94,1.67-.94Zm8-11.59-.09.58H54a1.4,1.4,0,0,0,.87-.21,1,1,0,0,0,.32-.65h2.67a3.65,3.65,0,0,1-1.14,2.33,4.18,4.18,0,0,1-2.7.74H51.79L51.4,40h5.76l-.38,2.42H55.06l-1.58,10H51.06l1.58-10H51l-.63,4c-.14.88-.29,1.68-.44,2.4a7,7,0,0,1-.65,1.85,2.93,2.93,0,0,1-2.84,1.63h-.52l.37-2.35h.57c.25,0,.47-.28.65-.85a18.68,18.68,0,0,0,.52-2.47l1.87-11.83Z"/></g></g></g></g></g></svg>