<svg xmlns="http://www.w3.org/2000/svg" viewBox="0 0 68.85 37.02"><defs><style>.cls-1{fill:#005bab;}.cls-2{fill:#231815;}</style></defs><g id="图层_2" data-name="图层 2"><g id="图层_1-2" data-name="图层 1"><g id="组_2920" data-name="组 2920"><g id="组_2914" data-name="组 2914"><path id="路径_2746" data-name="路径 2746" class="cls-1" d="M33.18.78s5.27-3.67,11.75,4.91l-2.24,2.1S35.79-1,33.18.78Z"/><path id="路径_2747" data-name="路径 2747" class="cls-1" d="M43.82,11.38c-1.16-.1-4.32,0-4.32,0l-5.31,5.28-5-5.23,5.21-5.28,5.1,5,2.73-2.58-4.84-5A6.1,6.1,0,0,0,32.8,1.08,10.35,10.35,0,1,0,44.9,11.91C44.84,11.74,44.63,11.45,43.82,11.38Z"/></g><path id="路径_2748" data-name="路径 2748" class="cls-2" d="M9.41,25.67a.51.51,0,0,0-.48-.53H5.5v-.78H3.87v.76s-2.5,0-3.2,0S0,25.7,0,25.7l0,5H3.84v.93H5.52v-.91H9.4S9.42,26.24,9.41,25.67ZM3.87,29.89H1.67V25.94h2.2Zm3.85,0H5.52V26h2.2Z"/><g id="组_2915" data-name="组 2915"><path id="路径_2749" data-name="路径 2749" class="cls-2" d="M20.61,24.3s-7.59,0-8.12,0a.75.75,0,0,0-.69.5v6.68h9.35V24.85C21.15,24.35,20.61,24.3,20.61,24.3ZM19.5,30.75h-6V25.08h6Z"/><path id="路径_2750" data-name="路径 2750" class="cls-2" d="M19.3,26.36v-.79H13.67v.79h1.86v.79h-1.8V28h1.8v1.53H13.65v.84h5.63v-.84h-2V28h1.92v-.84H17.31v-.79Z"/><path id="路径_2751" data-name="路径 2751" class="cls-2" d="M17.45,28.1h1.14l.29.53h.33v.74h-.88S18,29.53,17.45,28.1Z"/></g><path id="路径_2752" data-name="路径 2752" class="cls-2" d="M32.65,27.89V26.66h.56V25.8h-.59v-.64a.61.61,0,0,0-.62-.6H30.05v-.4H28.5v.43H26.57v.83h1.9v.37H26.38v.82h2.1V27h-1.9v.83h1.88v.37h-2v.89h2v.35H26.18v.88h2.27v.38H26.61l-.5-.1-.54-.3a2,2,0,0,0,.4-1L26,26.85h-.74a3.43,3.43,0,0,0,1-1.65v-.71h-3v.9h1.64a1.65,1.65,0,0,1-1.53,1.48v.85h1.47V29c-.09.46-.16.36-.16.36-.19.05-.4-1-.4-1h-.91v.32A5.65,5.65,0,0,0,24,30.23c-.12.17-.76.27-.76.27v1.06A2.26,2.26,0,0,0,24.9,31a5.13,5.13,0,0,0,1.55.55h6.64v-.84H30v-.37h2.59v-.89H30v-.4h2.62v-.84H30V27.9h2.65ZM30,25.41h1v.4H30Zm0,1.23h1V27H30Z"/><g id="组_2916" data-name="组 2916"><rect id="矩形_1046" data-name="矩形 1046" class="cls-2" x="35.04" y="24.37" width="3.01" height="0.87"/><path id="路径_2753" data-name="路径 2753" class="cls-2" d="M34.55,26h2.63v3.75l1.24-1.06v1.43a5.8,5.8,0,0,1-2.7,1.43l-.78-.89.72-.27V26.76H34.55Z"/><path id="路径_2754" data-name="路径 2754" class="cls-2" d="M38.3,26.27H39a.21.21,0,0,0,.13-.2v-1.9h4.54a.54.54,0,0,1,.54.54c0,.53,0,1.5,0,1.5h.77v.89H43.49a.87.87,0,0,1-.9-.79V25h-2v1.44a.64.64,0,0,1-.62.64h0a15.88,15.88,0,0,1-1.69,0Z"/><path id="路径_2755" data-name="路径 2755" class="cls-2" d="M38.29,27.36h6.53v.85l-1.69,1.68s-.37.13,2.07.45v1.08a8.48,8.48,0,0,1-3.5-.79s-.76.67-3.46.82v-1s1.95-.2,2-.44a11.24,11.24,0,0,1-1.78-1.53h1.7l1.5.86,1.41-1.13H38.29v-.81Z"/></g><g id="组_2917" data-name="组 2917"><path id="路径_2756" data-name="路径 2756" class="cls-2" d="M48.37,23.71l1.19.48-.3.62h1.83v.79H48.74l-.4.6H51v.88H49.44v.65h1.65v.86H49.45v1.53a6,6,0,0,0,1.59-1v1.28s-.46.83-2.86,1.23l-.86-1,.74-.12V28.63h-1v-.89h1.08v-.67h-.72l-.34.26-.79-1A4.72,4.72,0,0,0,48.37,23.71Z"/><path id="路径_2757" data-name="路径 2757" class="cls-2" d="M54,29.87a4.39,4.39,0,0,1-.85-1.7h1.24s.42,1,.52,1,.29,0,.83-1H57a3.47,3.47,0,0,1-1.13,1.8s.24.3,1.13.39v1.18a3.84,3.84,0,0,1-2.89-1.55"/><path id="路径_2758" data-name="路径 2758" class="cls-2" d="M56.62,27.77s0-2.64,0-3.13a.59.59,0,0,0-.52-.54H51.44v6.26h-.32l0,1.13c2.15.17,2.91-.47,2.91-.47V30l0-.08a3.94,3.94,0,0,1-1.11.38V27.82Zm-3.71-2.84h2.22v.62H52.9Zm0,1.46h2.22V27H52.9Z"/></g><g id="组_2918" data-name="组 2918"><rect id="矩形_1047" data-name="矩形 1047" class="cls-2" x="62.63" y="24.25" width="6.04" height="0.87"/><path id="路径_2759" data-name="路径 2759" class="cls-2" d="M62.28,26.47v.88H66v3a.31.31,0,0,1-.29.27l-1.76,0,0,.86H66.6a1.34,1.34,0,0,0,1.13-1.27V27.35h1.12v-.88Z"/><path id="路径_2760" data-name="路径 2760" class="cls-2" d="M61.4,24.5l-.82-.74a5.51,5.51,0,0,1-2.29,2.46l.55,1A6.8,6.8,0,0,0,61.4,24.5Z"/><path id="路径_2761" data-name="路径 2761" class="cls-2" d="M62.63,25.87,61.69,25l0,0a5.77,5.77,0,0,1-3.15,2.9L59.16,29c.1.05.78-.37.78-.37v2.88h1.6l0-4.09A5.74,5.74,0,0,0,62.63,25.87Z"/></g><g id="组_2919" data-name="组 2919"><path id="路径_2762" data-name="路径 2762" class="cls-2" d="M8.07,34.28A1,1,0,0,0,7,33.49c-.82,0-1.24.56-1.27,1.55S6.15,36.63,7,36.63c.59,0,1-.37,1.1-1.08h.51A1.59,1.59,0,0,1,6.91,37,1.78,1.78,0,0,1,5.6,36.5a2.33,2.33,0,0,1-.43-1.44,2.11,2.11,0,0,1,.53-1.51A1.73,1.73,0,0,1,7,33a1.45,1.45,0,0,1,1.59,1.23H8.07Z"/><path id="路径_2763" data-name="路径 2763" class="cls-2" d="M11.48,37H11v-1.8c0-.44-.17-.65-.57-.64s-.77.32-.78.91V37H9.17V33.15h.49v1.4h0a1,1,0,0,1,.83-.47,1,1,0,0,1,.7.26c.18.11.27.36.27.74Z"/><path id="路径_2764" data-name="路径 2764" class="cls-2" d="M12.69,37H12.2v-2.8h.49Zm-.49-3.29v-.53h.49v.53Z"/><path id="路径_2765" data-name="路径 2765" class="cls-2" d="M15.67,37H15.2v-1.7c0-.52-.17-.77-.61-.74a.7.7,0,0,0-.53.23,1,1,0,0,0-.21.68V37h-.49v-2.8h.47v.4a1,1,0,0,1,.86-.49.91.91,0,0,1,1,.82V37Z"/><path id="路径_2766" data-name="路径 2766" class="cls-2" d="M16.36,35c0-.64.4-.95,1.16-.95s1,.29,1,.8v1.62a.15.15,0,0,0,.13.17h.1a.22.22,0,0,1,.11,0V37h-.27c-.34,0-.5-.12-.49-.36a1.48,1.48,0,0,1-1,.39c-.56,0-.86-.27-.88-.75s.3-.8.86-.87l.78-.08a.31.31,0,0,0,.26-.34c0-.31-.23-.47-.68-.47a.55.55,0,0,0-.63.46V35Zm1.74.51a2.4,2.4,0,0,1-.79.19c-.39,0-.59.18-.59.45a.44.44,0,0,0,.37.49h.12c.55,0,.84-.27.88-.66v-.47Z"/><path id="路径_2767" data-name="路径 2767" class="cls-2" d="M23.66,34.28a1,1,0,0,0-1.08-.79c-.82,0-1.24.56-1.27,1.55s.43,1.59,1.29,1.59c.59,0,1-.37,1.1-1.08h.51A1.59,1.59,0,0,1,22.49,37a1.81,1.81,0,0,1-1.31-.51,2.36,2.36,0,0,1-.42-1.44,2.11,2.11,0,0,1,.53-1.51A1.73,1.73,0,0,1,22.58,33a1.45,1.45,0,0,1,1.59,1.23h-.51Z"/><path id="路径_2768" data-name="路径 2768" class="cls-2" d="M25,34.51a1.21,1.21,0,0,1,1-.42,1.15,1.15,0,0,1,.95.42,1.76,1.76,0,0,1,.36,1.06,1.57,1.57,0,0,1-.34,1.06,1.29,1.29,0,0,1-1,.36,1.41,1.41,0,0,1-.87-.23,1.74,1.74,0,0,1-.44-1.19A1.64,1.64,0,0,1,25,34.51Zm1,2.14c.51,0,.78-.37.82-1.08s-.31-1-.82-1.06-.78.37-.82,1.06.31,1.07.82,1.08Z"/><path id="路径_2769" data-name="路径 2769" class="cls-2" d="M30.07,37H29.6v-1.7c0-.52-.17-.77-.61-.74a.7.7,0,0,0-.53.23,1.06,1.06,0,0,0-.21.68V37h-.49v-2.8h.47v.4a1,1,0,0,1,.87-.49.9.9,0,0,1,1,.82.54.54,0,0,1,0,.18Z"/><path id="路径_2770" data-name="路径 2770" class="cls-2" d="M32.37,35c0-.33-.22-.49-.67-.49s-.54.15-.55.4.14.31.51.38l.48.11c.53.11.8.36.78.74a.85.85,0,0,1-.3.68,1.67,1.67,0,0,1-.8.17c-.8,0-1.21-.3-1.22-.91H31c0,.4.29.6.78.59s.62-.17.64-.46-.16-.3-.55-.4l-.57-.13q-.66-.18-.66-.66A.88.88,0,0,1,31,34.3a1.23,1.23,0,0,1,.74-.21c.68,0,1,.31,1.08.91Z"/><path id="路径_2771" data-name="路径 2771" class="cls-2" d="M34,34.57V36.4c0,.16.1.24.28.24h.19V37h-.36a.46.46,0,0,1-.58-.29.42.42,0,0,1,0-.25V34.58H33.2v-.4h.36v-.77H34v.76h.47v.4Z"/><path id="路径_2772" data-name="路径 2772" class="cls-2" d="M35.5,37H35v-2.8h.47v.49a.91.91,0,0,1,.8-.57.11.11,0,0,1,.08,0h0v.51h-.19a.66.66,0,0,0-.48.17.77.77,0,0,0-.23.57V37Z"/><path id="路径_2773" data-name="路径 2773" class="cls-2" d="M38.59,37v-.38l0,0a1,1,0,0,1-.91.42,1.58,1.58,0,0,1-.57-.08.83.83,0,0,1-.34-.72v-2h.49V36c0,.42.18.64.55.64s.74-.34.78-1V34.17H39V37Z"/><path id="路径_2774" data-name="路径 2774" class="cls-2" d="M41.51,35.15a.6.6,0,0,0-.58-.62h-.08c-.5,0-.77.38-.8,1s.27,1.1.79,1.1a.69.69,0,0,0,.67-.68H42a1.07,1.07,0,0,1-1.14,1,1.31,1.31,0,0,1-.93-.3,1.4,1.4,0,0,1-.34-1,1.72,1.72,0,0,1,.36-1.17,1.24,1.24,0,0,1,1-.4c.62,0,1,.37,1.06,1.07Z"/><path id="路径_2775" data-name="路径 2775" class="cls-2" d="M43,34.57V36.4c0,.16.1.24.28.24h.19V37h-.36a.46.46,0,0,1-.58-.29.42.42,0,0,1,0-.25V34.58h-.36v-.4h.36v-.77H43v.76h.47v.4Z"/><path id="路径_2776" data-name="路径 2776" class="cls-2" d="M44.43,37h-.49v-2.8h.49Zm-.49-3.29v-.53h.49v.53Z"/><path id="路径_2777" data-name="路径 2777" class="cls-2" d="M45.32,34.51a1.28,1.28,0,0,1,1.9,0,1.76,1.76,0,0,1,.36,1.06,1.57,1.57,0,0,1-.34,1.06,1.29,1.29,0,0,1-1,.36,1.41,1.41,0,0,1-.87-.23A1.8,1.8,0,0,1,45,35.57,1.71,1.71,0,0,1,45.32,34.51Zm1,2.14c.51,0,.78-.37.82-1.08s-.32-1-.82-1.06-.78.37-.83,1.06.32,1.07.83,1.08Z"/><path id="路径_2778" data-name="路径 2778" class="cls-2" d="M50.41,37H50v-1.7c0-.52-.18-.77-.62-.74a.72.72,0,0,0-.53.23,1.06,1.06,0,0,0-.21.68V37h-.48v-2.8h.47v.4a1,1,0,0,1,.86-.49.91.91,0,0,1,1,.82V37Z"/><path id="路径_2779" data-name="路径 2779" class="cls-2" d="M52.67,33.15h1.72q1,0,1.08,1a.82.82,0,0,1-.51.8,1,1,0,0,1,.72.94,1.09,1.09,0,0,1-.28.72,1.35,1.35,0,0,1-1.06.4H52.67V33.15Zm.53,1.61h.93c.55,0,.82-.19.8-.63s-.26-.56-.8-.56H53.2Zm0,1.79h1.12c.54,0,.81-.25.83-.7s-.31-.64-.93-.64h-1Z"/><path id="路径_2780" data-name="路径 2780" class="cls-2" d="M56.21,35c0-.64.4-.95,1.16-.95s1,.29,1,.8v1.62a.15.15,0,0,0,.12.17h.11a.2.2,0,0,1,.11,0V37h-.28c-.34,0-.5-.12-.49-.36A1.46,1.46,0,0,1,57,37c-.57,0-.86-.27-.89-.75s.3-.8.87-.87l.78-.08A.3.3,0,0,0,58,35c0-.31-.22-.47-.67-.47a.55.55,0,0,0-.63.46.28.28,0,0,0,0,.09Zm1.73.51a2.35,2.35,0,0,1-.78.19c-.4,0-.59.18-.59.45a.44.44,0,0,0,.36.49h.12c.55,0,.85-.27.89-.66v-.47Z"/><path id="路径_2781" data-name="路径 2781" class="cls-2" d="M61.52,37h-.47v-1.7c0-.52-.17-.77-.61-.74a.72.72,0,0,0-.53.23,1.06,1.06,0,0,0-.21.68V37h-.48v-2.8h.46v.4a1.05,1.05,0,0,1,.87-.49.9.9,0,0,1,1,.82.54.54,0,0,1,0,.18V37Z"/><path id="路径_2782" data-name="路径 2782" class="cls-2" d="M64.58,37H64l-.89-1.42-.38.38v1h-.46V33.15h.46v2.23l1.23-1.21h.59l-1.08,1.06Z"/></g></g></g></g></svg>