<svg xmlns="http://www.w3.org/2000/svg" viewBox="0 0 16.81 16.81"><defs><style>.cls-1{fill:#4d5dca;fill-rule:evenodd;}</style></defs><g id="图层_2" data-name="图层 2"><g id="图层_1-2" data-name="图层 1"><path id="路径_2820" data-name="路径 2820" class="cls-1" d="M3.88,13.59a.47.47,0,0,1,.32-.21h.12a.49.49,0,0,1,.43.5l-.06.32a7.91,7.91,0,0,0,.75.54l.74.57h.19c.08,0,.68-.16.82-.19a3.85,3.85,0,0,1,1-.06A1.21,1.21,0,0,1,9,14.54h.06a1,1,0,0,1,.74.32.88.88,0,0,0,.78.28c.58,0,1.32-.16,1.46-.58a1,1,0,0,1,.49-.54,4.12,4.12,0,0,1,.63-.39,1.94,1.94,0,0,1-.34.78,2.71,2.71,0,0,1-.6.52,3.82,3.82,0,0,1-1.81.45h-.07l-.53,0c-.07.76-.78.39-.78.64V16s.05.07.1.07h0l.08,0a.22.22,0,0,1-.18.14H9a.23.23,0,0,1-.2-.19v-.17c0-.2.14-.47.3-.47h0c.05,0,.1,0,.1.07v0s-.14,0-.14.1v0s0,.06.1.06h0a.26.26,0,0,0,.23-.28c0-.12-.16-.22-.28-.22H9.18c-.79,0-.49,1-1.21,1l-.36-.07v0c.13,0,.5-.17.5-.29v0c0-.09-.11-.16-.2-.16H7.83l-.4.06c-.29,0-.4-.22-.76-.22s-.23.2-.39.2h0s-.09-.14-.14-.2l-.17-.17A2.26,2.26,0,0,0,5.52,15c-.16-.08-.3-.13-.45-.22l-.4-.3h-.1c-.21,0-.3.19-.44.19H4.06a.29.29,0,0,1-.23-.24v0a.22.22,0,0,1,.2-.2h0a.07.07,0,0,1,.07.06h0c0,.07-.14,0-.14.15v0s0,.07.1.07.24-.2.24-.36v-.06a.24.24,0,0,0-.25-.22H4c-.11,0-.15.06-.23.07s.1-.2.23-.2h0c.19,0,.23.07.34.15s0,0,0,0v-.09c0-.14-.18-.25-.32-.25h0l-.2.05Zm11.4-7.41c0-.56-.18-1.27-.61-1.39a2.43,2.43,0,0,1-.89-1.11c.12,0,.28.07.43.14a2.46,2.46,0,0,1,.34.22,2,2,0,0,1,.52.59,3.64,3.64,0,0,1,.45,1.77v.1c0,.18,0,.32,0,.47s.06.06.15.1l.17.08c.35.18.12.66.32.66h.05s0,0,.07,0V7.59a.28.28,0,0,1,.12.19v0a.24.24,0,0,1-.24.23H16c-.22,0-.5-.14-.5-.35v0a.09.09,0,0,1,.08-.08h.05s0,.13.08.13h0a.07.07,0,0,0,.07-.06h0V7.56c0-.12-.16-.22-.29-.22s-.22.19-.22.34c0,.77,1,.51,1,1.17V9a1.36,1.36,0,0,1-.06.29c-.09-.06-.13-.5-.34-.5s-.18.16-.17.27l.06.48v0c0,.25-.2.27-.2.64v.07c0,.22.2.19.2.37s-.17.11-.21.14l-.18.17a2.38,2.38,0,0,0-.25.44c-.08.16-.15.32-.24.47s-.28.32-.28.41c0,.3.19.28.19.53a.25.25,0,0,1-.24.26.22.22,0,0,1-.23-.22h0s0-.09.06-.09.07.15.19.15a.1.1,0,0,0,.07-.08v0c0-.12-.2-.22-.3-.22h-.1a.28.28,0,0,0-.24.29c0,.09.07.17.09.23a.27.27,0,0,1-.22-.28.48.48,0,0,1,.17-.34l-.09,0h0a.32.32,0,0,0-.29.34h0a.72.72,0,0,0,.07.25.45.45,0,0,1-.24-.4.49.49,0,0,1,.15-.34.62.62,0,0,1,.34-.13l.35.05s.51-.71.56-.78.55-.65.55-.8a5.34,5.34,0,0,0-.2-.88,4.81,4.81,0,0,1-.07-1,1.2,1.2,0,0,1-.52-.94,1.06,1.06,0,0,1,.32-.7c.09-.13.16-.12.21-.29a1.15,1.15,0,0,0,.08-.41V6.18ZM2.94,3.9a.33.33,0,0,0-.08-.22.24.24,0,0,1,.22.25V4c0,.1-.11.22-.15.29s0,0,0,0h.08c.15,0,.25-.18.25-.34v0c0-.12,0-.13-.06-.2a.43.43,0,0,1,.23.39v0a.45.45,0,0,1-.38.44H2.93l-.3,0c0,.08-.46.66-.54.78a6.46,6.46,0,0,0-.54.75v.09a3.38,3.38,0,0,0,.14.63,3,3,0,0,1,.11.66V8a1.15,1.15,0,0,1,.52.84V9a1.06,1.06,0,0,1-.34.7.6.6,0,0,0-.21.31,2.42,2.42,0,0,0-.05.47v.13c0,.54.22,1.22.64,1.33A2.59,2.59,0,0,1,3.22,13a2,2,0,0,1-.78-.35,2.16,2.16,0,0,1-.52-.61,3.92,3.92,0,0,1-.44-1.8v-.1c0-.09,0-.46,0-.47s-.29-.12-.34-.15c-.31-.21-.08-.66-.32-.66-.06,0-.1,0-.1.12V9a.19.19,0,0,0,0,.08.21.21,0,0,1-.13-.2c0-.15.12-.23.28-.23H1c.2,0,.5.13.5.32V9c0,.05,0,.1-.07.1h0L1.3,9H1.23c-.05,0-.07.06-.07.12a.27.27,0,0,0,.2.23h.1c.14,0,.2-.16.2-.3V9a.68.68,0,0,0-.46-.61,1.22,1.22,0,0,1-.36-.18.54.54,0,0,1-.18-.35v0a2.38,2.38,0,0,1,.06-.37h0c0,.15.17.5.32.5s.15-.12.15-.2V7.71l-.06-.52c0-.18.22-.35.22-.59V6.52c0-.21-.2-.28-.2-.35v0S1.36,6,1.39,6a1.37,1.37,0,0,0,.17-.17,2.26,2.26,0,0,0,.26-.42,2.82,2.82,0,0,1,.23-.46l.28-.38V4.42c0-.22-.18-.25-.18-.45v0a.26.26,0,0,1,.23-.23h0a.21.21,0,0,1,.2.18v0A.31.31,0,0,1,2.6,4c-.17,0-.07-.15-.24-.15a.1.1,0,0,0-.06.08c0,.19.2.27.38.27A.26.26,0,0,0,2.94,4V3.9Zm7.37.65A3.4,3.4,0,0,1,10,4.3c-.1-.07-.22-.15-.33-.24A5.16,5.16,0,0,0,9,3.63a4,4,0,0,0-1.78-.49,2.48,2.48,0,0,0-1.33.35,8.79,8.79,0,0,1,1.25.2,3.14,3.14,0,0,1,1,.42L7,4V4h-.5a4.05,4.05,0,0,0-1.64.41c-.31.15-1,.68-1.06,1a5.38,5.38,0,0,0,.51-.2L4.8,5A3.11,3.11,0,0,1,6,4.82c-.07,0-.46.19-.57.23s-.35.17-.54.26A5.4,5.4,0,0,0,4,6a3,3,0,0,0-1.1,2.16h0a9.09,9.09,0,0,1,.73-.91,3.14,3.14,0,0,1,.93-.73c-.06.09-.17.2-.25.3s-.15.22-.24.33a6.52,6.52,0,0,0-.43.72,4,4,0,0,0-.49,1.79A2.6,2.6,0,0,0,3.5,11a5.5,5.5,0,0,1,.62-2.27L4,9.69v.57a3.86,3.86,0,0,0,.4,1.7c.16.32.67,1,1,1.09-.07-.29-.29-.71-.39-1a3.41,3.41,0,0,1-.2-1.23s.21.49.24.57.18.38.26.54a5,5,0,0,0,.67,1,2.9,2.9,0,0,0,2.18,1.09l-.47-.37c-.17-.12-.3-.27-.46-.39a2.94,2.94,0,0,1-.74-.94c.2.14.43.35.65.5a4.63,4.63,0,0,0,.71.43,4,4,0,0,0,1.82.49A2.46,2.46,0,0,0,11,13.3a7.62,7.62,0,0,1-1.24-.2,3,3,0,0,1-1-.41l1.05.11h.54A4.08,4.08,0,0,0,12,12.4a2.7,2.7,0,0,0,.63-.43,2.4,2.4,0,0,0,.46-.59c-.12,0-.37.15-.51.2a4.81,4.81,0,0,1-.53.2,3.5,3.5,0,0,1-1.24.2s.5-.21.57-.24.37-.18.54-.27a4.87,4.87,0,0,0,1-.67A2.91,2.91,0,0,0,14,8.63c-.05,0-.32.39-.38.47s-.26.3-.38.45a3.12,3.12,0,0,1-.94.75,3.4,3.4,0,0,1,.25-.31c.07-.1.15-.22.24-.33A5.16,5.16,0,0,0,13.18,9a4,4,0,0,0,.49-1.78,2.48,2.48,0,0,0-.35-1.33,5.46,5.46,0,0,1-.62,2.27l.11-1V6.4a4.14,4.14,0,0,0-.42-1.62c-.14-.29-.67-1-1-1,0,.1.33.84.39,1A3.41,3.41,0,0,1,12,6s-.2-.48-.24-.57-.17-.36-.26-.54a5.2,5.2,0,0,0-.66-1A2.83,2.83,0,0,0,8.68,2.87l.9.75a2.9,2.9,0,0,1,.73.93ZM7.74.62A.19.19,0,0,1,7.91.5h0a.22.22,0,0,1,.23.21v0c0,.27-.1.59-.35.59a.11.11,0,0,1-.1-.09c0-.08.15,0,.15-.15A.1.1,0,0,0,7.78,1h-.1c-.09,0-.19.15-.19.26v.05c0,.12.17.2.3.2h0a.7.7,0,0,0,.6-.5C8.53.76,8.68.52,9,.52A.67.67,0,0,1,9.39.6c-.14,0-.52.17-.52.32s.17.19.29.17L9.54,1h.14c.22,0,.28.2.57.2h.17c.14,0,.14-.2.35-.2.08.31.45.51.73.65a3.81,3.81,0,0,1,.45.23,3.35,3.35,0,0,0,.41.28h0c.27,0,.25-.19.5-.19a.25.25,0,0,1,.25.22v0c0,.08-.1.2-.17.2h-.06s-.05,0-.05,0h0c0-.08.13-.08.13-.18l0-.06h-.1c-.15,0-.23.21-.23.37a.27.27,0,0,0,.26.27H13a.72.72,0,0,0,.2-.09c0,.15-.15.22-.3.22s-.23-.13-.32-.15a.31.31,0,0,0,0,.08v0c0,.15.18.27.35.27h0c.11,0,.14-.05.22-.07a.47.47,0,0,1-.4.24.45.45,0,0,1-.45-.42v-.2c0-.1,0-.1,0-.19v0a4,4,0,0,0-.63-.47c-.23-.15-.42-.32-.63-.47s-.19-.21-.36-.18a3,3,0,0,0-.45.1,3.78,3.78,0,0,1-.94.16H8.84c0,.1-.27.3-.36.35a1,1,0,0,1-.54.17c-.73,0-.68-.61-1.41-.61H6.39c-.59,0-1.31.17-1.44.6a1.17,1.17,0,0,1-.48.53,4,4,0,0,1-.63.37A1.92,1.92,0,0,1,4.75,1.8a3.64,3.64,0,0,1,1.71-.46h.18l.56,0A.55.55,0,0,1,7.46.89C7.66.77,8,.93,8,.68A.1.1,0,0,0,7.89.62ZM16.8,8.87V7.93s-.09-.8-.11-.9c-.06-.29-.12-.55-.17-.81A7.43,7.43,0,0,0,16,4.77a8.25,8.25,0,0,0-1.65-2.32A8.57,8.57,0,0,0,12,.81,9.36,9.36,0,0,0,10.56.27,7.45,7.45,0,0,0,9.74.1L8.85,0H7.94L7,.11a6.16,6.16,0,0,0-.83.18C6,.38,5.7.43,5.45.53s-.47.19-.7.3a8.5,8.5,0,0,0-4,4.08A8.38,8.38,0,0,0,0,8.17v.47A8.29,8.29,0,0,0,.79,12a9.33,9.33,0,0,0,.75,1.3,11,11,0,0,0,.93,1.1A8.31,8.31,0,0,0,4.89,16c.24.09.46.21.73.3s.51.17.78.24a8.45,8.45,0,0,0,1.8.23h.44a8.41,8.41,0,0,0,3.27-.76,7.75,7.75,0,0,0,1.28-.74,7.24,7.24,0,0,0,1.09-.9A8.56,8.56,0,0,0,16,12.06a7.61,7.61,0,0,0,.54-1.47c.05-.26.12-.53.18-.83,0-.11.1-.88.11-.89Z"/></g></g></svg>