<svg xmlns="http://www.w3.org/2000/svg" viewBox="0 0 51.12 30.06"><defs><style>.cls-1,.cls-2,.cls-3{fill:#231815;}.cls-1{fill-rule:evenodd;}.cls-3{stroke:#231815;stroke-miterlimit:22.93;stroke-width:0.22px;}</style></defs><g id="图层_2" data-name="图层 2"><g id="图层_1-2" data-name="图层 1"><g id="组_2921" data-name="组 2921"><path id="路径_2783" data-name="路径 2783" class="cls-1" d="M3.89,24.63H.11v5.43H.88V27.93h3v-.67h-3V25.41h3Z"/><path id="路径_2784" data-name="路径 2784" class="cls-1" d="M5.19,26.43v3.63H7.58v-.78H6V27.1H8.3v3H9l1-1.94-.59-.35L9,28.59V26.43Z"/><path id="路径_2785" data-name="路径 2785" class="cls-1" d="M16.41,26.43v3.63H18.8v-.78H17.2V27.1h2.33v3h.7l1-1.94-.59-.35-.45.82V26.43Z"/><path id="路径_2786" data-name="路径 2786" class="cls-1" d="M11.32,26.42v3.64H15.1V24.63h-.78v1.79Zm.67.68h2.33v2.18H12Z"/><path id="路径_2787" data-name="路径 2787" class="cls-1" d="M27.65,26.43v3.63H30v-.78h-1.6V27.1h2.33v3h.7l1-1.94-.59-.35-.45.82V26.43Z"/><path id="路径_2788" data-name="路径 2788" class="cls-1" d="M22.56,26.42v3.64h3.78V24.63h-.78v1.79Zm.67.68h2.33v2.18H23.23Z"/><rect id="矩形_1048" data-name="矩形 1048" class="cls-2" x="33.91" y="27.88" width="0.78" height="0.67"/><path id="路径_2789" data-name="路径 2789" class="cls-1" d="M36.11,26.43v3.63H39.9v-.78h-3V27.1h3v-.67Z"/><path id="路径_2790" data-name="路径 2790" class="cls-1" d="M41.2,30.06H45V26.43H41.2Zm3.11-.78H42V27.1h2.34Z"/><path id="路径_2791" data-name="路径 2791" class="cls-1" d="M46.29,26.43v3.63h.77v-3h.78v3h.77v-3h.78v3h.68l1-1.94-.6-.36-.45.79V26.43Z"/><path id="路径_2792" data-name="路径 2792" class="cls-1" d="M10.8,0V3.75a12.32,12.32,0,0,0,4.61,0V0Z"/><path id="路径_2793" data-name="路径 2793" class="cls-1" d="M25.92,0V3.75a12.32,12.32,0,0,0,4.61,0V0Z"/><path id="路径_2794" data-name="路径 2794" class="cls-1" d="M41.06,0V3.75a12.27,12.27,0,0,0,4.6,0V0Z"/><rect id="矩形_1049" data-name="矩形 1049" class="cls-2" x="0.11" y="1.89" width="4.3" height="4.98"/><rect id="矩形_1050" data-name="矩形 1050" class="cls-3" x="0.11" y="9.68" width="4.3" height="4.98"/><path id="路径_2795" data-name="路径 2795" class="cls-1" d="M2.51,22.69H.11v-5h4.3V19Z"/><path id="路径_2796" data-name="路径 2796" class="cls-1" d="M45.67,12.27V9.13a19.74,19.74,0,0,1-4.61.06v3.08L35.8,22.33,30.54,12.27V9.13a19.75,19.75,0,0,1-4.61.06v3.08L20.47,22.69h4.7l3-6.2,3,6.2H40.3l3-6.2,3,6.2h4.77Z"/><path id="路径_2797" data-name="路径 2797" class="cls-1" d="M15.42,9.13a19.75,19.75,0,0,1-4.61.06v1.86H6.64v4.16h2.6L5.35,22.69H16.88l3.23-6.2H16.35L14.86,19.3H11.67l2-4.09h6.47V11.05H15.42Z"/><path id="路径_2798" data-name="路径 2798" class="cls-1" d="M50.92,7.72s-7.51,3.55-15.13,0V2.81a15.44,15.44,0,0,0,15.13,0Z"/><path id="路径_2799" data-name="路径 2799" class="cls-1" d="M35.79,7.72s-7.51,3.55-15.13,0V2.81a15.44,15.44,0,0,0,15.13,0Z"/><path id="路径_2800" data-name="路径 2800" class="cls-1" d="M20.66,7.72s-7.51,3.55-15.13,0V2.81a15.44,15.44,0,0,0,15.13,0Z"/></g></g></g></svg>