<svg xmlns="http://www.w3.org/2000/svg" viewBox="0 0 18.64 19.01"><defs><style>.cls-1{fill:#f4a318;}.cls-2{fill:#9aa3df;}</style></defs><g id="图层_2" data-name="图层 2"><g id="图层_1-2" data-name="图层 1"><g id="组_2813" data-name="组 2813"><g id="组_2812" data-name="组 2812"><path id="路径_2806" data-name="路径 2806" class="cls-1" d="M17,7H15.5c-.15,0-.2,0-.2-.2V4c0-.17.06-.2.21-.2h2.93c.16,0,.2,0,.2.2V6.8c0,.17-.06.21-.22.21Z"/></g></g><g id="组_2814" data-name="组 2814"><path id="路径_2807" data-name="路径 2807" class="cls-2" d="M8.85,19H3.33A3.33,3.33,0,0,1,0,15.68V10.27A3.45,3.45,0,0,1,3.35,6.81H4.53a2.11,2.11,0,0,0,2-1.44l1-3.11A3.29,3.29,0,0,1,10.66,0h0a3.5,3.5,0,0,1,3.74,3.18,1,1,0,0,1-.89,1,1,1,0,0,1-1-.89A1.63,1.63,0,0,0,10.7,1.91h0a1.4,1.4,0,0,0-1.28,1L8.35,6A4,4,0,0,1,4.5,8.71H3.35A1.56,1.56,0,0,0,1.9,10.27v5.42a1.42,1.42,0,0,0,1.43,1.42h10a1.84,1.84,0,0,0,1.43-.85c.16-.41,1-2.78,1.4-4.07.14-.86,0-1-.15-1.17a4.87,4.87,0,0,0-1.54-.86l-.17-.05-.2-.09A.43.43,0,0,1,14,10l-1.77-.55a1,1,0,0,1-.66-1A8.5,8.5,0,0,1,11.86,7a.95.95,0,1,1,1.82.51v0l-.09.32,1.15.36.07,0h0c2.05.87,3.66,1.56,3.18,4.31a.24.24,0,0,1,0,.08c-.35,1.34-1.45,4.31-1.57,4.52A3.76,3.76,0,0,1,13.33,19H8.85Z"/></g><g id="组_2815" data-name="组 2815"><path id="路径_2808" data-name="路径 2808" class="cls-2" d="M5.87,16.27a1,1,0,0,1-1-.95h0v-4.5a.95.95,0,1,1,1.9,0h0v4.5a1,1,0,0,1-1,.95Z"/></g></g></g></svg>